<svg aria-hidden="true" style="position: absolute; width: 0; height: 0; overflow: hidden;" version="1.1" xmlns="http://www.w3.org/2000/svg" xmlns:xlink="http://www.w3.org/1999/xlink">
<defs>
<symbol id="icon-btn-arrow-right" viewBox="0 0 30 32">
<path fill="none" stroke="#fff" style="stroke: var(--color1, #fff)" stroke-linejoin="round" stroke-linecap="round" stroke-miterlimit="4" stroke-width="4.5714" d="M2.286 15.528h25.143"></path>
<path fill="none" stroke="#fff" style="stroke: var(--color1, #fff)" stroke-linejoin="round" stroke-linecap="round" stroke-miterlimit="4" stroke-width="4.5714" d="M14.857 3.283l12.571 12.245-12.571 12.245"></path>
</symbol>
<symbol id="icon-linkedin" viewBox="0 0 32 32">
<path fill="#0a66c2" style="fill: var(--color2, #0a66c2)" d="M29.724 0h-26.267c-0.603 0-1.182 0.24-1.609 0.666s-0.666 1.005-0.666 1.609v26.267c0 0.603 0.24 1.182 0.666 1.609s1.005 0.666 1.609 0.666h26.267c0.603 0 1.182-0.24 1.609-0.666s0.666-1.005 0.666-1.609v-26.267c0-0.603-0.24-1.182-0.666-1.609s-1.005-0.666-1.609-0.666zM10.368 26.252h-4.633v-14.717h4.633v14.717zM8.048 9.496c-0.526-0.003-1.038-0.162-1.474-0.456s-0.774-0.711-0.973-1.197c-0.199-0.486-0.249-1.021-0.145-1.536s0.359-0.988 0.732-1.358c0.373-0.37 0.847-0.622 1.363-0.723s1.050-0.047 1.535 0.155c0.485 0.202 0.9 0.543 1.191 0.981s0.447 0.951 0.446 1.477c0.005 0.352-0.061 0.701-0.194 1.027s-0.33 0.622-0.58 0.87c-0.25 0.248-0.547 0.443-0.873 0.574s-0.676 0.194-1.028 0.187zM27.445 26.265h-4.631v-8.040c0-2.371-1.008-3.103-2.309-3.103-1.374 0-2.722 1.036-2.722 3.163v7.98h-4.633v-14.719h4.456v2.039h0.060c0.447-0.905 2.014-2.452 4.404-2.452 2.585 0 5.378 1.534 5.378 6.029l-0.002 9.104z"></path>
</symbol>
<symbol id="icon-instagram" viewBox="0 0 33 32">
<path fill="#ec3397" style="fill: var(--color3, #ec3397)" d="M16.641 2.775c4.117 0 4.604 0.018 6.223 0.090 1.505 0.066 2.317 0.319 2.859 0.53 0.716 0.277 1.234 0.614 1.77 1.15 0.542 0.542 0.873 1.053 1.15 1.77 0.211 0.542 0.463 1.36 0.53 2.859 0.072 1.625 0.090 2.113 0.090 6.224 0 4.117-0.018 4.604-0.090 6.224-0.066 1.505-0.319 2.317-0.53 2.859-0.277 0.716-0.614 1.234-1.15 1.769-0.542 0.542-1.053 0.873-1.77 1.15-0.542 0.211-1.36 0.463-2.859 0.53-1.625 0.072-2.113 0.090-6.224 0.090-4.117 0-4.604-0.018-6.223-0.090-1.505-0.066-2.317-0.319-2.859-0.53-0.716-0.277-1.234-0.614-1.77-1.15-0.542-0.542-0.873-1.053-1.15-1.769-0.211-0.542-0.463-1.36-0.53-2.859-0.072-1.625-0.090-2.113-0.090-6.223 0-4.117 0.018-4.604 0.090-6.224 0.066-1.505 0.319-2.317 0.53-2.859 0.277-0.716 0.614-1.234 1.15-1.77 0.542-0.542 1.053-0.873 1.77-1.15 0.542-0.211 1.36-0.463 2.859-0.53 1.619-0.072 2.107-0.090 6.223-0.090zM16.641 0c-4.183 0-4.707 0.018-6.35 0.090-1.637 0.072-2.763 0.337-3.738 0.716-1.017 0.397-1.878 0.921-2.733 1.782-0.861 0.855-1.384 1.715-1.782 2.727-0.379 0.981-0.644 2.101-0.716 3.738-0.072 1.649-0.090 2.173-0.090 6.356s0.018 4.707 0.090 6.35c0.072 1.637 0.337 2.763 0.716 3.738 0.397 1.017 0.921 1.878 1.782 2.733 0.855 0.855 1.715 1.384 2.727 1.776 0.981 0.379 2.101 0.644 3.738 0.716 1.643 0.072 2.167 0.090 6.35 0.090s4.707-0.018 6.35-0.090c1.637-0.072 2.763-0.337 3.738-0.716 1.011-0.391 1.872-0.921 2.727-1.776s1.384-1.715 1.776-2.727c0.379-0.981 0.644-2.1 0.716-3.738 0.072-1.643 0.090-2.167 0.090-6.35s-0.018-4.707-0.090-6.35c-0.072-1.637-0.337-2.763-0.716-3.738-0.379-1.023-0.903-1.884-1.763-2.739-0.855-0.855-1.715-1.384-2.727-1.776-0.981-0.379-2.101-0.644-3.738-0.716-1.649-0.078-2.173-0.096-6.356-0.096z"></path>
<path fill="#ec3397" style="fill: var(--color3, #ec3397)" d="M16.64 7.494c-4.37 0-7.915 3.545-7.915 7.915s3.545 7.915 7.915 7.915c4.37 0 7.915-3.545 7.915-7.915s-3.545-7.915-7.915-7.915zM16.64 20.543c-2.835 0-5.134-2.299-5.134-5.134s2.299-5.134 5.134-5.134c2.835 0 5.134 2.299 5.134 5.134s-2.299 5.134-5.134 5.134z"></path>
<path fill="#ec3397" style="fill: var(--color3, #ec3397)" d="M26.716 7.181c0 1.023-0.831 1.848-1.848 1.848-1.023 0-1.848-0.831-1.848-1.848 0-1.023 0.831-1.848 1.848-1.848s1.848 0.831 1.848 1.848z"></path>
</symbol>
<symbol id="icon-facebook" viewBox="0 0 32 32">
<path fill="#1877f2" style="fill: var(--color4, #1877f2)" d="M30.817 15.409c0-8.51-6.899-15.408-15.408-15.408s-15.408 6.899-15.408 15.408c0 7.691 5.635 14.065 13.001 15.221v-10.767h-3.912v-4.454h3.912v-3.395c0-3.862 2.3-5.995 5.82-5.995 1.685 0 3.449 0.301 3.449 0.301v3.792h-1.943c-1.914 0-2.511 1.188-2.511 2.408v2.889h4.273l-0.683 4.454h-3.59v10.767c7.366-1.156 13.001-7.53 13.001-15.221z"></path>
<path fill="#fff" style="fill: var(--color1, #fff)" d="M21.405 19.863l0.683-4.454h-4.273v-2.889c0-1.219 0.597-2.408 2.511-2.408h1.943v-3.792c0 0-1.763-0.301-3.449-0.301-3.52 0-5.82 2.133-5.82 5.995v3.395h-3.912v4.454h3.912v10.767c1.595 0.25 3.22 0.25 4.815 0v-10.767h3.59z"></path>
</symbol>
<symbol id="icon-doodle" viewBox="0 0 66 32">
<path d="M0.459 7.673c2.425 4.377 6.51 7.942 10.519 10.852 3.425 2.49 7.27 3.664 11.501 3.436 7.527-0.409 17.708-3.477 21.039-11.098 3.115-7.13-7.656-12.95-13.266-8.994-2.612 1.847-1.706 6.113-0.836 8.626 1.683 4.856 5.727 8.374 9.625 11.484 4.412 3.518 9.31 6.3 14.78 7.796 2.028 0.555 3.582 0.672 5.628 0.596 1.186-0.041 4.512-0.462 5.084 0.953 0.134 0.333 0.824-0.386 0.69-0.707-0.66-1.619-3.974-1.157-5.301-1.11-3.273 0.117-6.13-0.596-9.216-1.794-3.921-1.531-7.469-3.705-10.765-6.312-3.407-2.7-6.908-5.622-8.947-9.549-0.941-1.818-1.514-3.81-1.654-5.856-0.076-1.093 0.047-1.087 0.654-2.291 0.719-1.432 0.59-1.443 2.034-1.812 0.953-0.245 1.958-0.362 2.94-0.292 3.395 0.245 8.112 2.694 8.427 6.481 0.357 4.278-4.289 7.773-7.597 9.602-3.939 2.174-8.468 3.173-12.927 3.401-4.278 0.222-8.129-1.023-11.56-3.588-3.857-2.887-7.802-6.282-10.163-10.537-0.187-0.327-0.853 0.415-0.69 0.713z"></path>
</symbol>
<symbol id="icon-rocket-left" viewBox="0 0 23 32">
<path d="M8.719 14.618c-0.161-0.455 0.206-1.057 0.356-1.484 0.198-0.565 0.428-1.114 0.678-1.657 0.511-1.114 1.067-2.219 1.742-3.244 1.304-1.981 2.935-3.624 4.621-5.271 0.76-0.743 1.526-1.496 2.338-2.181 0.124-0.104 0.474-0.426 0.558-0.424 0.241 0.004 0.168 0.021 0.216 0.229 0.041 0.174 0.004 0.425 0.010 0.6 0.023 0.597 0.065 1.194 0.081 1.792 0.062 2.459-0.215 4.914-0.602 7.341-0.199 1.254-0.454 2.442-0.767 3.673-0.32 1.265-0.472 2.567-0.778 3.839-0.035 0.147 0.369 0.088 0.402-0.051 0.306-1.272 0.457-2.574 0.778-3.839 0.323-1.273 0.58-2.509 0.788-3.806 0.425-2.661 0.676-5.345 0.552-8.041-0.014-0.296-0.035-0.593-0.048-0.889-0.011-0.278 0.056-0.645-0.016-0.919-0.056-0.215-0.114-0.294-0.353-0.284-0.308 0.013-0.624 0.305-0.851 0.479-0.521 0.395-0.987 0.867-1.467 1.31-1.872 1.727-3.688 3.48-5.205 5.534-0.88 1.19-1.587 2.476-2.218 3.812-0.299 0.632-0.583 1.273-0.819 1.934-0.172 0.484-0.577 1.146-0.397 1.657 0.048 0.138 0.448 0.024 0.401-0.109z"></path>
<path d="M8.264 14.861c1.080 0.237 2.005 0.76 3.018 1.196 1.016 0.438 2.033 0.874 3.045 1.32 0.757 0.335 1.664 1.074 2.517 1.094 0.442 0.011 0.512-0.222 0.597-0.616 0.032-0.15-0.371-0.088-0.402 0.051-0.1 0.46-0.272 0.32-0.703 0.123-0.356-0.162-0.689-0.38-1.043-0.551-0.782-0.377-1.59-0.7-2.386-1.046-1.444-0.627-2.867-1.454-4.4-1.79-0.126-0.027-0.47 0.169-0.243 0.219z"></path>
<path d="M12.945 5.642c-0.013 0.028-0.024 0.056-0.037 0.083 0.107-0.045 0.216-0.089 0.323-0.134-0.956-0.106-1.917-0.28-2.874-0.031-0.878 0.227-1.662 0.714-2.293 1.359-0.76 0.778-1.361 1.746-1.921 2.673-0.538 0.892-1.28 1.951-1.341 3.021-0.001 0.034 0.008 0.058 0.041 0.072 0.536 0.24 1.124 0.117 1.693 0.107 0.304-0.006 0.607-0.008 0.911-0.030 0.471-0.034 0.949-0.217 1.417-0.22 0.151-0.001 0.426-0.23 0.157-0.227-0.608 0.004-1.179 0.216-1.789 0.241-0.456 0.018-0.968 0.085-1.423 0.052-0.527-0.038-0.634-0.227-0.496-0.683 0.106-0.35 0.289-0.671 0.462-0.991 0.28-0.52 0.561-1.038 0.871-1.54 0.616-0.994 1.275-2.075 2.192-2.821 1.262-1.025 2.633-0.929 4.148-0.762 0.114 0.013 0.272-0.017 0.323-0.134 0.013-0.028 0.024-0.056 0.037-0.083 0.055-0.126-0.343-0.083-0.401 0.048z"></path>
<path d="M19.252 7.876c1.122 0.95 2.226 2.104 2.817 3.466 0.597 1.379 0.414 2.887 0.244 4.341-0.080 0.697-0.224 1.341-0.409 2.019-0.038 0.138-0.071 0.672-0.172 0.795-0.288 0.346-0.705-0.169-0.908-0.335-1.090-0.882-2.111-1.831-2.865-3.023-0.071-0.112-0.462 0.017-0.373 0.157 0.467 0.737 1.029 1.391 1.664 1.988 0.563 0.529 1.189 1.162 1.841 1.578 1.078 0.687 1.217-1.192 1.382-1.799 0.226-0.836 0.336-1.748 0.387-2.612 0.048-0.817 0.102-1.776-0.134-2.564-0.5-1.674-1.796-3.065-3.099-4.168-0.11-0.093-0.486 0.062-0.376 0.155z"></path>
<path d="M17.212 6.134c-0.599-0.664-1.828-0.376-2.466 0.092-0.978 0.716-0.637 2.047 0.267 2.653 0.83 0.556 1.936 0.712 2.411-0.37 0.222-0.503 0.275-1.079 0.138-1.608-0.083-0.321-0.199-0.894-0.536-1.049-0.119-0.055-0.486 0.119-0.32 0.195 0.371 0.171 0.552 1.214 0.535 1.563-0.016 0.301-0.086 0.624-0.205 0.901-0.032 0.099-0.081 0.191-0.144 0.274-0.296 0.085-0.593 0.169-0.889 0.254-0.133-0.016-0.322-0.155-0.436-0.217-0.6-0.332-1.122-0.959-1.011-1.688 0.14-0.912 1.595-1.604 2.284-0.84 0.093 0.103 0.476-0.042 0.373-0.158z"></path>
<path d="M15.537 11.339c-0.291-0.655-1.635-0.682-2.201-0.445-0.462 0.193-0.933 0.623-1.12 1.091-0.253 0.637 0.25 1.232 0.69 1.66 0.702 0.682 1.93 1.177 2.657 0.264 0.391-0.493 0.443-1.062 0.274-1.633-0.123-0.416-0.182-0.971-0.632-1.163-0.12-0.051-0.486 0.124-0.319 0.195 0.408 0.174 0.71 1.262 0.673 1.67-0.011 0.131-0.069 0.287-0.112 0.411-0.152 0.44-0.181 0.439-0.69 0.587-0.491 0.143-0.518 0.151-0.894-0.069-0.208-0.121-0.408-0.251-0.583-0.419-0.227-0.219-0.419-0.484-0.582-0.755-0.309-0.515-0.051-1.014 0.371-1.386 0.394-0.349 1.76-0.59 2.065 0.1 0.061 0.14 0.455 0.016 0.401-0.107z"></path>
<path d="M10.342 15.597c-0.354 0.566-0.747 1.084-1.183 1.59-0.198 0.229-0.898 0.95-0.799 1.306 0.085 0.304 0.733 0.349 0.973 0.424 0.816 0.256 1.621 0.539 2.434 0.803 0.635 0.206 1.245 0.464 1.873 0.679 0.209 0.070 0.455 0.182 0.652 0.032 0.306-0.233 0.267-0.975 0.305-1.3 0.073-0.625 0.209-1.247 0.136-1.878-0.016-0.137-0.384-0.034-0.402 0.079-0.001 0.013-0.004 0.024-0.006 0.037-0.024 0.155 0.38 0.086 0.402-0.051 0.001-0.013 0.004-0.024 0.006-0.037-0.134 0.027-0.268 0.052-0.402 0.079 0.068 0.575-0.049 1.131-0.121 1.698-0.031 0.246-0.045 0.493-0.083 0.737 0 0-0.195 0.627 0.034 0.45-0.114 0.089-1.149-0.419-1.348-0.486-0.562-0.185-1.127-0.36-1.686-0.552-0.491-0.168-0.984-0.332-1.477-0.494-0.161-0.052-0.483-0.106-0.628-0.206-0.133 0.021-0.185-0.037-0.155-0.174-0.048-0.113-0.025-0.21 0.066-0.295 0.172-0.45 0.594-0.816 0.895-1.177 0.33-0.395 0.618-0.82 0.891-1.256 0.096-0.157-0.306-0.12-0.376-0.008z"></path>
<path d="M10.376 20.065c-1.117-0.45-2.469 1.1-2.867 1.975-0.040 0.086 0.141 0.089 0.174 0.086 0.178-0.017 0.241-0.052 0.412-0.107-0.058 0.018 0.723-0.236 0.775-0.191 0.219 0.184-0.301 1.448-0.343 1.708-0.083 0.507-0.003 0.964 0.073 1.467 0.041 0.268 0.047 1.082 0.271 1.282 0.385 0.343 0.894-0.48 1.050-0.657 0.367-0.412 0.769-0.84 1.101-1.278 0.299-0.395 0.445-0.84 0.651-1.282-0.12 0.041-0.24 0.082-0.361 0.123 0.531 0.193 0.333 0.997 0.758 1.214 0.090 0.047 0.253 0.003 0.32-0.063 0.313-0.309 0.344-0.945 0.302-1.355-0.083-0.823-0.463-1.724-1.097-2.266-0.292-0.25-0.88-0.762-1.29-0.659-0.464 0.117-0.696 0.912-0.736 1.307-0.008 0.088 0.113 0.096 0.174 0.086 0.353-0.058 0.635-0.216 0.949-0.394-0.109-0.011-0.217-0.023-0.326-0.034-0.008 0.748-0.809 1.34-0.888 2.115-0.004 0.038 0.011 0.052 0.041 0.072 0.908 0.617 2.538-2.146 1.597-2.745-0.11-0.070-0.481 0.092-0.32 0.195 0.717 0.455-0.63 2.5-0.905 2.308-0.141-0.099 0.872-1.666 0.875-1.996 0.001-0.15-0.254-0.075-0.326-0.034-0.058 0.033-0.508 0.267-0.645 0.291 0.058 0.028 0.116 0.058 0.174 0.086 0.034-0.349 0.186-0.923 0.511-1.105-0.095 0.013-0.189 0.025-0.285 0.038 0.81 0.364 1.482 0.92 1.803 1.763 0.21 0.551 0.584 1.754 0.066 2.263 0.107-0.021 0.215-0.042 0.321-0.064-0.154-0.079-0.254-0.579-0.33-0.731-0.11-0.22-0.184-0.394-0.428-0.483-0.12-0.044-0.304 0-0.361 0.123-0.294 0.631-0.555 1.107-1.002 1.632-0.381 0.449-0.752 1.117-1.242 1.436 0.095-0.013 0.189-0.025 0.285-0.038-0.198-0.085-0.237-0.742-0.268-0.919-0.086-0.48-0.195-1.033-0.151-1.519 0.059-0.648 0.545-1.409 0.424-2.046-0.007-0.034-0.051-0.047-0.078-0.055-0.501-0.154-1.014 0.251-1.501 0.296 0.058 0.028 0.116 0.058 0.174 0.086 0.264-0.58 1.386-2.037 2.146-1.731 0.127 0.041 0.493-0.134 0.326-0.202z"></path>
<path d="M14.94 6.052c-0.258 0.241-0.193 0.73-0.195 1.052-0.001 0.385-0.103 1.016 0.12 1.355 0.049 0.075 0.309-0.013 0.248-0.104-0.176-0.268-0.095-0.778-0.099-1.079-0.004-0.275-0.1-0.956 0.138-1.179 0.114-0.107-0.148-0.106-0.213-0.045z"></path>
<path d="M15.735 6.077c0.003-0.013 0.006-0.025 0.010-0.040 0.024-0.099-0.246-0.058-0.268 0.034-0.226 0.915-0.39 1.94-0.224 2.881 0.016 0.089 0.205 0.020 0.241-0.014 0.071-0.063 0.073-0.068 0.096-0.161 0.024-0.099-0.246-0.058-0.268 0.034-0.014 0.028-0.028 0.055-0.044 0.083 0.080-0.004 0.161-0.010 0.241-0.014-0.164-0.932 0.001-1.937 0.224-2.843-0.089 0.011-0.178 0.023-0.268 0.034-0.003 0.013-0.006 0.025-0.010 0.040-0.021 0.099 0.248 0.058 0.27-0.034z"></path>
<path d="M16.125 5.934c-0.33 0.904-0.582 2.058-0.438 3.023 0.014 0.092 0.257 0.023 0.268-0.052 0.001-0.011 0.004-0.024 0.006-0.035 0.016-0.104-0.254-0.058-0.268 0.034-0.001 0.011-0.004 0.024-0.006 0.035 0.089-0.017 0.178-0.035 0.268-0.052-0.143-0.953 0.112-2.094 0.438-2.984 0.031-0.090-0.236-0.058-0.268 0.032z"></path>
<path d="M16.624 5.941c-0.134 0.666-0.251 1.337-0.319 2.013-0.034 0.339-0.205 0.878-0.111 1.199 0.027 0.093 0.295 0.021 0.268-0.072-0.054-0.186 0.049-0.481 0.069-0.672 0.023-0.233 0.040-0.467 0.065-0.7 0.068-0.604 0.176-1.204 0.296-1.8 0.020-0.102-0.25-0.058-0.268 0.032z"></path>
<path d="M16.918 6.348c-0.103 0.446-0.177 0.898-0.224 1.354-0.049 0.469-0.014 0.935-0.1 1.4-0.020 0.103 0.247 0.055 0.268-0.034 0.003-0.013 0.006-0.025 0.008-0.038 0.024-0.099-0.246-0.058-0.268 0.034-0.003 0.013-0.006 0.025-0.009 0.038 0.089-0.011 0.178-0.023 0.268-0.034 0.087-0.47 0.049-0.93 0.1-1.4 0.049-0.455 0.121-0.908 0.224-1.354 0.023-0.099-0.247-0.058-0.268 0.034z"></path>
<path d="M12.889 11.426c0.003-0.013 0.006-0.025 0.010-0.038-0.089 0.011-0.178 0.023-0.268 0.034-0.117 0.508 0.011 1.019-0.024 1.533-0.001 0.023 0.006 0.038 0.027 0.048 0.014 0.007 0.028 0.013 0.042 0.020 0.079 0.037 0.323-0.078 0.213-0.13-0.032-0.015-0.024-0.596-0.027-0.649-0.020-0.289-0.030-0.572 0.037-0.856 0.023-0.099-0.246-0.056-0.268 0.034-0.003 0.013-0.006 0.025-0.010 0.038-0.024 0.099 0.246 0.058 0.268-0.034z"></path>
<path d="M13.277 11.126c-0.24 0.251-0.219 0.603-0.255 0.929-0.058 0.525-0.184 1.026-0.071 1.552 0.020 0.092 0.256 0.023 0.268-0.052 0.001-0.011 0.004-0.024 0.006-0.035 0.017-0.103-0.253-0.058-0.268 0.034-0.001 0.011-0.004 0.024-0.006 0.035 0.089-0.017 0.178-0.035 0.268-0.052-0.099-0.46-0.010-0.895 0.049-1.352 0.041-0.308-0.008-0.771 0.223-1.012 0.107-0.114-0.154-0.11-0.215-0.045z"></path>
<path d="M13.552 11.089c0.006 0.496-0.020 0.991 0.014 1.485 0.032 0.467-0.058 0.964 0.058 1.42 0.024 0.093 0.227 0.020 0.258-0.032 0.007-0.011 0.014-0.023 0.021-0.035 0.064-0.107-0.205-0.082-0.25-0.006-0.007 0.011-0.014 0.023-0.021 0.035 0.086-0.011 0.172-0.023 0.258-0.032-0.112-0.436-0.025-0.964-0.058-1.42-0.035-0.494-0.010-0.99-0.014-1.485 0-0.085-0.268-0.034-0.267 0.071z"></path>
<path d="M14.158 11.103c-0.178 0.97-0.174 2.153-0.017 3.126 0.016 0.095 0.253 0.020 0.268-0.052 0.006-0.030 0.013-0.061 0.018-0.090 0.021-0.1-0.248-0.058-0.268 0.034-0.006 0.030-0.013 0.061-0.018 0.090 0.089-0.017 0.178-0.035 0.268-0.052-0.155-0.968-0.162-2.116 0.017-3.088 0.018-0.103-0.251-0.059-0.268 0.032z"></path>
<path d="M14.749 10.966c-0.018 1.046-0.184 2.061-0.116 3.109 0.004 0.014 0.014 0.023 0.027 0.028 0.014 0.007 0.027 0.013 0.041 0.020 0.079 0.037 0.323-0.076 0.213-0.13-0.196-0.093-0.027-1.337-0.014-1.495 0.044-0.524 0.107-1.040 0.117-1.567 0.001-0.109-0.267-0.054-0.268 0.035z"></path>
<path d="M15.255 11.422c-0.044 0.764 0.013 1.564-0.11 2.32-0.017 0.103 0.253 0.058 0.268-0.034 0.121-0.754 0.065-1.556 0.11-2.319 0.006-0.109-0.263-0.056-0.268 0.034z"></path>
<path d="M16.61 2.119c0.424 0.449 0.87 0.853 1.434 1.11 0.416 0.191 0.903 0.223 1.293 0.449 0.062 0.037 0.164-0.004 0.214-0.042 0.020-0.016 0.038-0.030 0.058-0.045 0.12-0.093-0.147-0.097-0.214-0.044-0.020 0.015-0.038 0.030-0.058 0.045 0.072-0.014 0.143-0.028 0.214-0.042-0.37-0.215-0.815-0.241-1.211-0.414-0.586-0.253-1.045-0.661-1.48-1.121-0.066-0.068-0.32 0.030-0.251 0.104z"></path>
<path d="M17.888 1.407c-0.239 0.088-0.346 0.232-0.496 0.436 0.083 0.001 0.167 0.004 0.25 0.006 0.119-0.209 0.253-0.411 0.402-0.6 0.078-0.099-0.188-0.066-0.231-0.025-0.236 0.22-0.479 0.425-0.69 0.668 0.083 0.001 0.167 0.004 0.25 0.006 0.11-0.157 0.25-0.284 0.419-0.383-0.072-0.007-0.144-0.016-0.217-0.023 0.004 0.136-0.037 0.257-0.126 0.367-0.071 0.123 0.193 0.054 0.232 0.025 0.193-0.147 0.312-0.373 0.5-0.512-0.080-0.001-0.161-0.003-0.241-0.006-0.083 0.258-0.244 0.503-0.381 0.736-0.069 0.117 0.202 0.061 0.25 0.006 0.277-0.32 0.459-0.71 0.731-1.022-0.086 0.004-0.172 0.010-0.258 0.014-0.003 0.301-0.167 0.507-0.287 0.771-0.117 0.254-0.171 0.532-0.349 0.754 0.083 0.001 0.167 0.004 0.25 0.006 0.184-0.34 0.374-0.675 0.558-1.018 0.136-0.254 0.27-0.673 0.454-0.888-0.086 0.004-0.172 0.010-0.258 0.014-0.080 0.724-0.528 1.328-0.744 2.009-0.006 0.020 0.010 0.041 0.027 0.048 0.596 0.234 0.998-1.609 1.201-1.851-0.086 0.004-0.172 0.010-0.258 0.014-0.001 0.648-0.569 1.187-0.64 1.83-0.013 0.116 0.225 0.038 0.259-0.014 0.34-0.521 0.428-1.152 0.733-1.691-0.086 0.004-0.172 0.010-0.258 0.014-0.095 0.378-0.229 0.743-0.326 1.117 0.089-0.011 0.178-0.023 0.268-0.034 0.061-0.257 0.507-1.235-0.085-1.158-0.225 0.030-0.399 0.272-0.538 0.422-0.295 0.322-0.483 0.703-0.748 1.045 0.083 0.001 0.167 0.004 0.25 0.006 0.16-0.236 0.337-0.549 0.14-0.816-0.097-0.133-0.264-0.213-0.419-0.117-0.641 0.4 0.761 1.341 0.984 1.519 0.077-0.040 0.154-0.078 0.231-0.117-0.421-0.282-0.838-0.815-1.351-0.932-0.056-0.013-0.206 0.013-0.216 0.089-0.045 0.35 0.625 0.721 0.889 0.425 0.292-0.329-0.512-0.641-0.747-0.655-0.058-0.003-0.144 0.023-0.176 0.073-0.311 0.472 0.494 0.721 0.836 0.761 0.061 0.007 0.203-0.008 0.216-0.089 0.092-0.565-1.713-0.604-0.623 0.356 0.198 0.174 0.59 0.425 0.805 0.14 0.233-0.311-0.362-1.165-0.659-1.254-0.361-0.107-0.421 0.2-0.312 0.477 0.157 0.398 0.734 1.028 1.224 0.926 0.768-0.16 0.148-1.529-0.216-0.88-0.155 0.278 0.020 0.819 0.394 0.72 0.507-0.134 0.459-1.059 0.281-1.403-0.033-0.062-0.136-0.041-0.186-0.020-0.356 0.152-0.374 1.128 0.003 1.256 0.073 0.025 0.184 0.006 0.232-0.062 0.258-0.361 0.335-0.97 0.255-1.399-0.017-0.089-0.263-0.025-0.268 0.052-0.020 0.282 0.001 0.546 0.024 0.83 0.021 0.253-0.037 0.558 0.074 0.786 0.040 0.082 0.191 0.030 0.241-0.014 0.148-0.13 0.158-0.265 0.003-0.4-0.063-0.054-0.175-0.013-0.232 0.031-0.128 0.097-0.278 0.27-0.447 0.244-0.055 0.048-0.109 0.097-0.164 0.145 0.265 0.037 0.511-0.008 0.781 0.013 0.070 0.006 0.284-0.116 0.134-0.148-0.299-0.066-0.549-0.263-0.846-0.302-0.048-0.006-0.275 0.034-0.206 0.126 0.179 0.239 0.961 0.58 1.224 0.311 0.021-0.021 0.040-0.047 0.017-0.075-0.196-0.241-0.635-0.46-0.905-0.179-0.31 0.323 0.171 0.472 0.428 0.51 0.066 0.010 0.165-0.010 0.206-0.071 0.090-0.134 0.054-0.318 0.081-0.483 0.014-0.086-0.148-0.056-0.186-0.038-0.217 0.106-0.552 0.284-0.774 0.080-0.193-0.176 0.147-0.819 0.2-0.928 0.172-0.353 0.397-0.68 0.33-1.087-0.017-0.102-0.226-0.007-0.258 0.032-0.234 0.282-0.26 0.635-0.34 0.983-0.024 0.106 0.227 0.045 0.258-0.014 0.254-0.483 0.525-0.998 0.593-1.546 0.011-0.089-0.145-0.054-0.186-0.038-0.491 0.191-0.692 0.863-1.097 1.172 0.078 0.008 0.155 0.017 0.232 0.025 0.133-0.241 0.34-0.5 0.531-0.689 0.124-0.124 0.248-0.195 0.327-0.356 0.055-0.113-0.164-0.072-0.207-0.042-0.343 0.227-0.641 0.534-1.007 0.726 0.069 0.014 0.138 0.028 0.207 0.042 0.1-0.196 0.323-0.374 0.491-0.504-0.080-0.001-0.161-0.003-0.241-0.006-0.073 0.179-0.261 0.325-0.404 0.449-0.12 0.104 0.151 0.092 0.215 0.044 0.165-0.124 0.277-0.282 0.431-0.412 0.216-0.182 0.353-0.36 0.326 0.056-0.018 0.292-0.126 0.562-0.123 0.858 0.001 0.089 0.253 0.021 0.268-0.052 0.062-0.295 0.14-0.586 0.207-0.88-0.089 0.011-0.178 0.023-0.268 0.034-0.040 0.449-0.008 0.954 0.062 1.405 0.014 0.093 0.254 0.021 0.268-0.052 0.054-0.287 0.24-0.963 0.003-1.22-0.062-0.066-0.229-0.004-0.258 0.069-0.188 0.459-0.131 0.992-0.198 1.478-0.014 0.109 0.246 0.051 0.268-0.034 0.122-0.453 0.332-1.028 0.023-1.456-0.040-0.054-0.168-0.014-0.207 0.013-0.177 0.117-0.164 0.226-0.232 0.431-0.15 0.457-0.268 0.908-0.378 1.378-0.023 0.099 0.247 0.058 0.268-0.034 0.078-0.332 0.141-0.672 0.244-0.997 0.048-0.152 0.124-0.607 0.264-0.7-0.069 0.004-0.138 0.008-0.207 0.013 0.289 0.401 0.070 0.961-0.042 1.384 0.089-0.011 0.178-0.023 0.268-0.034 0.066-0.484 0.010-1.021 0.198-1.478-0.086 0.023-0.172 0.047-0.258 0.069 0.198 0.213 0.024 0.911-0.021 1.149 0.089-0.017 0.178-0.035 0.268-0.052-0.061-0.391-0.097-0.97-0.062-1.367 0.010-0.11-0.248-0.052-0.268 0.034-0.068 0.294-0.144 0.584-0.207 0.88 0.089-0.017 0.178-0.035 0.268-0.052-0.003-0.222 0.344-1.156-0.018-1.286-0.384-0.138-0.897 0.661-1.097 0.812 0.072 0.014 0.143 0.030 0.215 0.044 0.174-0.151 0.368-0.309 0.457-0.527 0.042-0.104-0.215-0.027-0.241-0.006-0.188 0.145-0.416 0.328-0.527 0.542-0.059 0.117 0.165 0.065 0.207 0.042 0.367-0.192 0.662-0.497 1.007-0.726-0.069-0.014-0.138-0.028-0.208-0.042-0.097 0.199-0.296 0.298-0.439 0.456-0.151 0.167-0.312 0.391-0.419 0.589-0.068 0.124 0.192 0.055 0.232 0.025 0.35-0.267 0.575-0.946 0.988-1.105-0.062-0.013-0.124-0.025-0.186-0.038-0.066 0.534-0.328 1.036-0.575 1.506 0.086-0.004 0.172-0.010 0.258-0.014 0.076-0.329 0.099-0.673 0.322-0.943-0.086 0.011-0.172 0.023-0.258 0.032 0.095 0.586-0.942 1.547-0.476 2.109 0.295 0.357 0.798 0.007 1.093-0.137-0.062-0.013-0.124-0.025-0.186-0.038-0.031 0.080-0.062 0.161-0.093 0.241-0.008 0.014-0.017 0.042 0 0.055 0.010 0.049 0.021 0.099 0.031 0.148 0.069-0.024 0.138-0.047 0.206-0.071-0.196-0.030 0.041-0.119 0.011-0.183-0.004-0.010-0.185-0.066-0.261-0.096-0.144-0.055-0.333-0.121-0.429-0.247-0.069 0.042-0.137 0.083-0.206 0.126 0.275 0.035 0.563 0.239 0.846 0.302 0.045-0.049 0.089-0.099 0.134-0.148-0.241-0.020-0.48 0.027-0.721-0.007-0.083-0.011-0.316 0.123-0.164 0.145 0.391 0.059 0.535-0.123 0.826-0.344-0.078 0.010-0.154 0.020-0.232 0.031 0.010 0.083 0.021 0.167 0.031 0.25 0.080-0.004 0.161-0.010 0.241-0.014-0.081-0.167-0.045-0.381-0.057-0.558-0.020-0.346-0.066-0.672-0.042-1.022-0.089 0.017-0.178 0.035-0.268 0.052 0.070 0.385-0.003 0.992-0.237 1.321 0.078-0.021 0.154-0.041 0.232-0.062-0.205-0.069-0.323-0.925-0.11-1.016-0.062-0.007-0.124-0.013-0.186-0.020 0.124 0.239 0.161 0.527 0.093 0.791-0.062 0.244-0.202 0.512-0.261 0.106-0.051-0.345 0.017-0.284 0.040-0.025 0.007 0.075 0.063 0.264 0.014 0.332-0.179 0.247-0.518-0.069-0.649-0.185-0.066-0.058-0.51-0.683-0.442-0.7 0.097-0.025 0.463 0.575 0.483 0.651 0.133 0.484-0.312 0.141-0.457-0.057-0.357-0.481 0.33-0.304 0.285-0.031 0.072-0.030 0.144-0.059 0.216-0.089-0.017-0.001-1.032-0.291-0.758-0.481 0.008-0.006 0.229 0.097 0.243 0.112 0.278 0.288-0.222 0.196-0.181-0.121-0.072 0.030-0.144 0.059-0.216 0.089 0.493 0.113 0.895 0.642 1.303 0.916 0.064 0.042 0.305-0.059 0.232-0.117-0.287-0.227-0.61-0.407-0.841-0.697-0.12-0.15-0.223-0.35-0.21-0.428 0.103 0.032 0.116 0.124 0.038 0.274-0.044 0.133-0.107 0.254-0.191 0.364-0.071 0.104 0.199 0.071 0.25 0.006 0.184-0.236 0.552-1.093 0.858-1.152 0.054-0.119 0.099-0.123 0.137-0.013 0.062 0.049 0.072 0.109 0.027 0.176 0.011 0.206-0.121 0.504-0.169 0.707-0.024 0.099 0.244 0.056 0.268-0.034 0.097-0.376 0.232-0.737 0.326-1.117 0.027-0.106-0.227-0.042-0.258 0.014-0.304 0.538-0.392 1.172-0.733 1.691 0.086-0.004 0.172-0.010 0.258-0.014 0.071-0.644 0.638-1.176 0.639-1.83 0-0.121-0.219-0.034-0.258 0.014-0.205 0.243-0.26 0.579-0.38 0.867-0.073 0.175-0.34 0.531-0.359 0.714-0.024 0.241 0.117-0.056 0.184-0.157 0.092-0.14 0.134-0.342 0.2-0.496 0.164-0.378 0.34-0.747 0.387-1.162 0.014-0.121-0.223-0.028-0.258 0.014-0.212 0.246-0.301 0.606-0.455 0.888-0.185 0.34-0.375 0.679-0.558 1.018-0.065 0.12 0.203 0.064 0.25 0.006 0.164-0.205 0.21-0.431 0.312-0.668 0.134-0.312 0.34-0.544 0.343-0.896 0.001-0.121-0.217-0.032-0.258 0.014-0.273 0.312-0.455 0.702-0.731 1.022 0.083 0.001 0.167 0.004 0.25 0.006 0.147-0.25 0.311-0.498 0.4-0.774 0.035-0.11-0.213-0.027-0.241-0.006-0.193 0.144-0.304 0.363-0.5 0.512 0.078 0.008 0.155 0.017 0.232 0.025 0.079-0.138 0.128-0.243 0.144-0.405 0.010-0.103-0.174-0.045-0.217-0.023-0.22 0.113-0.347 0.263-0.503 0.456-0.076 0.096 0.196 0.068 0.25 0.006 0.2-0.23 0.433-0.422 0.656-0.63-0.078-0.008-0.155-0.017-0.231-0.025-0.148 0.189-0.284 0.391-0.402 0.6-0.065 0.114 0.202 0.069 0.25 0.006 0.088-0.14 0.205-0.25 0.353-0.332 0.164-0.066 0.004-0.157-0.117-0.112z"></path>
<path d="M6.18 19.446c-1.341 0.831-2.033 2.523-2.726 3.871-0.815 1.584-1.601 3.202-2.31 4.837-0.217 0.502-1.614 3.74-0.623 3.806 0.080 0.006 0.258-0.040 0.28-0.14 0.008-0.037 0.016-0.075 0.024-0.112 0.031-0.15-0.373-0.088-0.402 0.051-0.008 0.037-0.016 0.075-0.024 0.111 0.093-0.047 0.186-0.093 0.28-0.14-0.466-0.031 0.733-3.318 0.887-3.669 0.679-1.561 1.429-3.103 2.204-4.619 0.668-1.304 1.367-3.075 2.661-3.878 0.23-0.141-0.12-0.199-0.25-0.118z"></path>
<path d="M5.747 24.567c-1.079 1.971-2.413 3.905-3.049 6.075-0.038 0.13 0.233 0.079 0.28 0.058 0.124-0.056 0.176-0.082 0.192-0.225 0.017-0.159-0.387-0.086-0.402 0.051 0.017 0.003 0.034 0.006 0.051 0.008 0.093 0.020 0.186 0.038 0.28 0.058 0.63-2.145 1.954-4.067 3.021-6.015 0.095-0.168-0.308-0.127-0.371-0.010z"></path>
</symbol>
<symbol id="icon-rocket-right" viewBox="0 0 20 32">
<path d="M16.001 16.183c-1.626-3.588-3.588-7.054-6.314-9.929-2.534-2.673-5.606-4.789-8.987-6.242-0.079-0.033-0.235 0-0.265 0.090-0.355 1.047-0.167 2.232-0.060 3.309 0.118 1.183 0.297 2.358 0.536 3.522 0.466 2.269 1.16 4.49 2.074 6.616 0.891 2.075 1.993 4.063 3.29 5.913 0.322 0.459 0.654 0.91 1.002 1.35 0.225 0.285 0.392 0.517 0.78 0.501 0.882-0.033 1.951-0.571 2.743-0.928 1.090-0.489 2.126-1.093 3.088-1.801 0.956-0.703 1.859-1.495 2.309-2.62 0.037-0.095-0.257-0.062-0.295 0.037-0.803 2.016-3.237 3.358-5.112 4.216-0.515 0.235-1.042 0.446-1.58 0.626-0.568 0.19-1.119 0.425-1.589-0.056-0.682-0.699-1.232-1.645-1.759-2.462-2.209-3.423-3.761-7.263-4.606-11.245-0.23-1.086-0.408-2.184-0.532-3.288-0.135-1.193-0.381-2.567 0.011-3.725-0.088 0.030-0.177 0.060-0.265 0.090 3.367 1.446 6.425 3.553 8.946 6.214 2.717 2.866 4.673 6.316 6.293 9.892 0.044 0.104 0.334 0.012 0.293-0.077z"></path>
<path d="M4.626 8.437c1.204-1.135 3.079-1.329 4.295-0.102 0.429 0.434 0.747 1.012 0.831 1.622 0.112 0.805-0.3 1.443-0.791 2.031-0.638 0.766-1.46 1.378-2.522 1.179-0.687-0.13-1.272-0.548-1.669-1.118-0.67-0.958-1.132-2.885-0.023-3.701 0.134-0.098-0.16-0.104-0.237-0.049-1.392 1.023-0.592 3.532 0.522 4.453 1.256 1.039 2.889 0.67 3.929-0.445 0.627-0.671 1.228-1.464 1.086-2.432-0.118-0.793-0.594-1.518-1.235-1.987-1.372-1.002-3.246-0.612-4.421 0.497-0.127 0.12 0.165 0.118 0.235 0.051z"></path>
<path d="M5.589 8.949c0.824-0.907 2.357-0.645 3.139 0.223 0.789 0.879 0.047 1.808-0.733 2.353-0.531 0.371-1.276 0.626-1.894 0.343-0.3-0.137-0.596-0.357-0.815-0.599-0.678-0.752-0.12-1.585 0.341-2.286 0.074-0.112-0.221-0.088-0.276-0.007-0.302 0.459-0.763 1.1-0.705 1.682 0.054 0.55 0.536 0.933 0.97 1.207 1.083 0.682 1.982 0.248 2.914-0.51 0.995-0.812 1.14-1.954-0.023-2.685-1.003-0.631-2.314-0.696-3.156 0.23-0.114 0.128 0.172 0.123 0.239 0.049z"></path>
<path d="M4.201 1.962c-0.265 0.647-0.599 1.255-1.077 1.77-0.255 0.274-0.536 0.515-0.861 0.706-0.425 0.25-0.938 0.244-1.348 0.469 0.174-0.097-0.086-0.141-0.183-0.088-0.047 0.026-0.093 0.053-0.141 0.077-0.084 0.047-0.061 0.128 0.033 0.128 1.894-0.002 3.2-1.457 3.873-3.102 0.037-0.091-0.257-0.058-0.297 0.039z"></path>
<path d="M12.289 9.311c1.685-0.729 3.587-0.223 4.936 0.951 1.211 1.056 1.972 2.504 2.601 3.957 0.079-0.040 0.158-0.079 0.239-0.12-1.088-0.327-2.177-0.724-3.286-0.97-0.738-0.163-1.429-0.156-2.107 0.199-0.176 0.091 0.086 0.139 0.183 0.088 0.921-0.482 1.956-0.081 2.864 0.193 0.721 0.216 1.443 0.434 2.163 0.65 0.051 0.016 0.276-0.032 0.239-0.12-0.743-1.717-1.694-3.479-3.314-4.514-1.39-0.887-3.112-1.095-4.634-0.436-0.19 0.081-0.018 0.179 0.116 0.121z"></path>
<path d="M3.591 14.496c-1.406 0.49-2.427 1.655-2.959 3.024-0.729 1.879-0.397 3.942 0.142 5.822 0.028 0.1 0.283 0.028 0.295-0.058 0.148-0.993 0.554-1.896 1.144-2.706 0.678-0.93 1.94-2.429 3.219-2.274 0.093 0.011 0.346-0.141 0.181-0.16-1.207-0.146-2.188 0.745-2.959 1.567-0.951 1.012-1.675 2.221-1.88 3.61 0.098-0.019 0.197-0.039 0.295-0.058-0.483-1.684-0.801-3.487-0.329-5.212 0.415-1.517 1.448-2.905 2.966-3.434 0.195-0.069 0.018-0.169-0.116-0.121z"></path>
<path d="M14.754 18.174c-0.004-0.011 0.561 0.311 0.643 0.374 0.199 0.155 0.387 0.318 0.566 0.494 0.308 0.302 0.589 0.633 0.835 0.988 0.204 0.293 0.615 0.715 0.367 1.091-0.105 0.16-0.559 0.3-0.719 0.387-0.518 0.279-1.037 0.557-1.557 0.836-0.518 0.279-1.037 0.557-1.557 0.837-0.239 0.128-0.478 0.256-0.719 0.386-0.348 0.186-0.575 0.406-0.831-0.026-0.22-0.369-0.822-3.267-0.346-3.436 0.195-0.069 0.018-0.169-0.116-0.121-0.487 0.172-0.3 0.986-0.271 1.385 0.035 0.483 0.107 0.963 0.214 1.436 0.065 0.286 0.144 0.958 0.346 1.17 0.235 0.248 0.42 0.093 0.71-0.062 0.96-0.513 1.915-1.030 2.873-1.543 0.478-0.257 0.958-0.515 1.436-0.771 0.248-0.134 0.682-0.262 0.863-0.483 0.309-0.38-0.329-1.079-0.546-1.372-0.471-0.634-1.060-1.209-1.729-1.631-0.302-0.19-0.545-0.308-0.793-0.011-0.011 0.012-0.012 0.026-0.011 0.042 0.014 0.039 0.030 0.077 0.044 0.116 0.040 0.097 0.332 0.009 0.297-0.086z"></path>
<path d="M16.572 21.861c1.183 0.025 2.205 1.685 2.787 2.564 0.076-0.046 0.151-0.091 0.228-0.139-0.522-0.061-1.070-0.181-1.596-0.191-0.13-0.002-0.281-0.030-0.402 0.035-0.487 0.256 0.012 1.084 0.112 1.462 0.545 2.056 0.749 4.182 0.643 6.305 0.088-0.030 0.177-0.060 0.265-0.090-2.13-1.123-3.56-3.241-3.885-5.616-0.014-0.098-0.309-0.032-0.295 0.079 0.042 0.348-0.051 0.612-0.32 0.838 0.088-0.005 0.177-0.011 0.265-0.016-0.097-0.269-1.098-3.715-0.817-3.724 0.111-0.003 0.313-0.174 0.114-0.167-0.469 0.014-0.48 0.395-0.418 0.803 0.163 1.081 0.455 2.14 0.826 3.167 0.035 0.095 0.216 0.026 0.265-0.016 0.307-0.26 0.425-0.567 0.378-0.965-0.098 0.026-0.197 0.053-0.295 0.079 0.33 2.408 1.791 4.544 3.947 5.681 0.060 0.032 0.26 0 0.265-0.090 0.072-1.453 0.007-2.908-0.221-4.348-0.114-0.715-0.265-1.423-0.455-2.123-0.107-0.395-0.462-0.951 0.114-1.104 0.332-0.088 0.979 0.118 1.33 0.158 0.058 0.007 0.297-0.033 0.228-0.139-0.645-0.974-1.629-2.587-2.947-2.615-0.114-0.002-0.316 0.165-0.118 0.169z"></path>
<path d="M16.123 22.91c0.153-0.151 0.757 0.496 0.824 0.622 0.332 0.276 0.137 0.416-0.59 0.424-0.067-0.009-0.135-0.009-0.202-0.004-0.144 0.084-0.19 0.011-0.274 0.22-0.065 0.165 0.081 0.524 0.112 0.687 0.069 0.341 0.137 0.68 0.206 1.021 0.095 0.476 0.568 1.653 0.211 2.077 0.095-0.012 0.19-0.025 0.285-0.037-0.501-1.096-1.002-2.191-1.501-3.288-0.040-0.090-0.25-0.037-0.285 0.037-0.162 0.339-0.323 0.678-0.485 1.017 0.095-0.012 0.19-0.025 0.285-0.037-0.381-0.938-0.376-1.912 0.026-2.841 0.039-0.092-0.253-0.060-0.295 0.037-0.408 0.945-0.413 1.929-0.026 2.884 0.037 0.092 0.251 0.035 0.285-0.037 0.162-0.339 0.323-0.678 0.485-1.017-0.095 0.012-0.19 0.025-0.285 0.037 0.501 1.096 1.002 2.191 1.501 3.288 0.046 0.102 0.235 0.023 0.285-0.037 0.227-0.269 0.127-0.566 0.065-0.887-0.121-0.64-0.257-1.276-0.385-1.914-0.030-0.149-0.251-0.779-0.179-0.893 0.135-0.211 0.241-0.079 0.425-0.125 0.316-0.079 0.562-0.125 0.843-0.307 0.032-0.019 0.079-0.063 0.046-0.102-0.325-0.373-1.032-1.448-1.615-0.873-0.12 0.121 0.17 0.118 0.239 0.049z"></path>
<path d="M4.184 2.211c-1.037 2.777-1.784 5.644-2.237 8.572-0.018 0.114 0.279 0.063 0.295-0.037 0.455-2.928 1.2-5.796 2.237-8.572 0.037-0.097-0.258-0.062-0.295 0.037z"></path>
<path d="M3.125 3.816c-0.712 1.866-1.207 3.796-1.49 5.773-0.016 0.116 0.281 0.063 0.295-0.037 0.281-1.977 0.779-3.906 1.49-5.773 0.037-0.097-0.258-0.062-0.295 0.037z"></path>
<path d="M2.393 4.48c-0.429 1.272-0.778 2.564-1.053 3.877-0.023 0.111 0.274 0.063 0.295-0.037 0.274-1.314 0.624-2.606 1.053-3.877 0.035-0.1-0.26-0.063-0.295 0.037z"></path>
<path d="M1.758 4.935c-0.304 0.887-0.54 1.791-0.71 2.712-0.021 0.112 0.276 0.063 0.295-0.037 0.17-0.923 0.408-1.824 0.71-2.712 0.035-0.1-0.262-0.062-0.295 0.037z"></path>
<path d="M1.505 4.986c-0.016-0.039-0.032-0.079-0.047-0.118-0.040-0.1-0.272-0.028-0.295 0.058-0.128 0.474-0.235 0.952-0.32 1.436-0.019 0.112 0.278 0.063 0.295-0.037 0.084-0.483 0.192-0.961 0.32-1.436-0.098 0.019-0.197 0.039-0.295 0.058 0.016 0.039 0.032 0.079 0.047 0.118 0.042 0.102 0.334 0.014 0.295-0.079z"></path>
<path d="M4.727 2.471c-1.067 3.023-1.919 6.114-2.553 9.256-0.023 0.111 0.274 0.063 0.295-0.037 0.634-3.142 1.485-6.233 2.553-9.256 0.035-0.098-0.26-0.062-0.295 0.037z"></path>
<path d="M5.196 2.763c-1.102 3.204-1.947 6.484-2.536 9.822-0.019 0.112 0.278 0.063 0.295-0.037 0.589-3.337 1.434-6.618 2.536-9.822 0.033-0.1-0.262-0.062-0.295 0.037z"></path>
<path d="M5.801 3.192c-0.499 1.741-0.998 3.485-1.497 5.226-0.030 0.104 0.267 0.063 0.295-0.037 0.499-1.742 0.998-3.485 1.497-5.226 0.030-0.105-0.267-0.063-0.295 0.037z"></path>
<path d="M3.721 10.096c-0.255 1.153-0.508 2.306-0.763 3.458-0.025 0.109 0.272 0.063 0.295-0.037 0.255-1.153 0.508-2.306 0.763-3.458 0.025-0.109-0.272-0.063-0.295 0.037z"></path>
<path d="M6.549 3.64c0.007-0.002 0.014-0.003 0.019-0.005 0.039-0.011 0.148-0.054 0.128-0.114-0.003-0.011-0.007-0.019-0.011-0.030-0.035-0.107-0.241-0.016-0.285 0.037-0.149 0.174-0.165 0.487-0.221 0.705-0.105 0.415-0.211 0.829-0.318 1.242-0.202 0.787-0.402 1.575-0.604 2.362-0.028 0.107 0.269 0.063 0.295-0.037 0.181-0.705 0.36-1.408 0.541-2.112 0.084-0.332 0.169-0.662 0.255-0.995 0.077-0.306 0.125-0.921 0.329-1.158-0.095 0.012-0.19 0.025-0.285 0.037 0.004 0.011 0.007 0.019 0.011 0.030 0.042-0.039 0.086-0.076 0.128-0.114-0.007 0.002-0.014 0.004-0.019 0.005-0.179 0.049-0.141 0.199 0.037 0.148z"></path>
<path d="M4.192 11.66c-0.123 0.937-0.571 1.784-0.715 2.715-0.018 0.114 0.279 0.063 0.295-0.037 0.146-0.931 0.592-1.778 0.715-2.715 0.016-0.116-0.281-0.063-0.295 0.037z"></path>
<path d="M7.222 4.19c0.004-0.005 0.009-0.009 0.012-0.014 0.016-0.018 0.014-0.044 0-0.061-0.005-0.007-0.011-0.012-0.018-0.019-0.062-0.070-0.228-0.007-0.274 0.054-0.255 0.339-0.292 1.051-0.392 1.464-0.072 0.297-0.144 0.594-0.214 0.891-0.065 0.274-0.093 0.843-0.279 1.058 0.095-0.012 0.19-0.025 0.285-0.037-0.002-0.009-0.003-0.018-0.005-0.028-0.056 0.040-0.112 0.081-0.169 0.121 0.005 0 0.012-0 0.018-0.002 0.146-0.009 0.246-0.176 0.040-0.163-0.005 0-0.012 0-0.018 0.002-0.051 0.003-0.181 0.047-0.169 0.121 0.002 0.009 0.003 0.018 0.005 0.028 0.019 0.112 0.248 0.007 0.285-0.037 0.269-0.313 0.293-1.081 0.39-1.483 0.070-0.297 0.142-0.594 0.216-0.889 0.070-0.283 0.104-0.807 0.279-1.040-0.091 0.018-0.183 0.037-0.274 0.054 0.002-0.009 0.002-0.018 0.003-0.026-0.081 0.095 0.214 0.077 0.278 0.007z"></path>
<path d="M4.761 12.243c-0.192 1.237-0.561 2.455-0.787 3.689-0.021 0.112 0.278 0.063 0.295-0.037 0.227-1.234 0.596-2.453 0.787-3.689 0.019-0.116-0.279-0.065-0.295 0.037z"></path>
<path d="M7.869 4.466c-0.014-0.093-0.005-0.076-0.077-0.137-0.072-0.060-0.257-0.016-0.285 0.076-0.174 0.568-0.339 1.135-0.496 1.708-0.091 0.332-0.415 1.010-0.313 1.339 0.011 0.035 0.060 0.046 0.090 0.044 0.009 0 0.018-0.002 0.026-0.002 0.109-0.005 0.313-0.177 0.114-0.167 0.135-0.007 0.408-1.365 0.439-1.48 0.137-0.496 0.283-0.988 0.434-1.48-0.095 0.025-0.19 0.051-0.285 0.076 0.019 0.033 0.037 0.067 0.056 0.1 0.014 0.102 0.311 0.033 0.295-0.077z"></path>
<path d="M8.176 5.046c-0.313 0.387-0.332 0.975-0.431 1.446-0.053 0.258-0.348 0.96-0.186 1.179 0.056 0.077 0.23 0.002 0.274-0.054 0.005-0.007 0.012-0.014 0.018-0.023 0.025-0.032 0.007-0.056-0.019-0.074-0.005-0.003-0.011-0.007-0.016-0.011-0.079-0.054-0.351 0.063-0.235 0.142-0.007-0.014-0.014-0.028-0.021-0.042 0.091-0.018 0.183-0.037 0.274-0.054-0.102-0.139 0.188-1.002 0.228-1.197 0.088-0.425 0.111-0.963 0.39-1.306 0.081-0.102-0.214-0.083-0.276-0.007z"></path>
<path d="M8.691 5.582c-0.213 0.234-0.299 0.578-0.401 0.87-0.144 0.413-0.26 0.835-0.355 1.262-0.019 0.083 0.132 0.063 0.167 0.054 0.014-0.003 0.028-0.005 0.040-0.009 0.042-0.009 0.118-0.042 0.128-0.093 0.004-0.014 0.005-0.028 0.009-0.042 0.021-0.112-0.276-0.063-0.295 0.037-0.003 0.014-0.005 0.028-0.009 0.042 0.042-0.032 0.086-0.061 0.128-0.093-0.014 0.003-0.028 0.005-0.040 0.009 0.056 0.018 0.112 0.037 0.167 0.054 0.072-0.327 0.156-0.65 0.258-0.97s0.214-0.828 0.439-1.077c0.116-0.123-0.17-0.118-0.237-0.044z"></path>
<path d="M9.314 6.172c-0.16 0.336-0.297 0.678-0.399 1.037-0.069 0.242-0.258 0.67-0.097 0.893 0.058 0.081 0.344-0.019 0.274-0.116-0.128-0.176 0.077-0.68 0.135-0.875 0.095-0.32 0.218-0.631 0.362-0.931 0.062-0.128-0.234-0.095-0.276-0.007z"></path>
<path d="M10.123 6.856c-0.007-0.047-0.014-0.097-0.021-0.144-0.016-0.107-0.274-0.018-0.295 0.058-0.118 0.42-0.234 0.84-0.351 1.26-0.084 0.302-0.271 0.687-0.255 1 0.002 0.023 0.040 0.039 0.058 0.040 0.009 0.002 0.018 0.002 0.026 0.004 0.083 0.011 0.202-0.012 0.239-0.098 0.004-0.007 0.005-0.014 0.009-0.019 0.039-0.093-0.255-0.060-0.295 0.037-0.004 0.007-0.005 0.014-0.009 0.019 0.079-0.033 0.158-0.065 0.239-0.098 0.097 0.012 0.582-1.982 0.638-2.181-0.098 0.019-0.197 0.039-0.295 0.058 0.007 0.047 0.014 0.097 0.021 0.144 0.012 0.1 0.309 0.032 0.292-0.079z"></path>
<path d="M10.487 7.522c-0.353 0.694-0.604 1.422-0.756 2.186-0.023 0.111 0.276 0.063 0.295-0.037 0.148-0.749 0.39-1.462 0.736-2.142 0.062-0.127-0.232-0.093-0.276-0.007z"></path>
<path d="M10.828 8.3c-1.611 3.645-3.16 7.316-4.645 11.015-0.039 0.095 0.257 0.060 0.295-0.037 1.485-3.697 3.033-7.37 4.645-11.015 0.040-0.091-0.251-0.060-0.295 0.037z"></path>
<path d="M8.211 12.82c-0.274 0.947-0.821 1.821-1.223 2.72-0.443 0.989-0.842 1.996-1.204 3.019-0.035 0.098 0.26 0.062 0.295-0.037 0.362-1.021 0.761-2.030 1.204-3.019 0.401-0.896 0.949-1.773 1.223-2.72 0.030-0.104-0.265-0.063-0.295 0.037z"></path>
<path d="M7.262 13.282c0.127 0.149-0.316 0.944-0.378 1.095-0.167 0.413-0.332 0.824-0.499 1.237-0.332 0.824-0.664 1.65-0.996 2.474-0.039 0.093 0.257 0.060 0.295-0.037 0.381-0.949 0.764-1.896 1.146-2.845 0.183-0.453 0.366-0.907 0.548-1.36 0.079-0.197 0.318-0.489 0.156-0.678-0.063-0.079-0.346 0.026-0.272 0.114z"></path>
<path d="M6.491 13.356c-0.585 1.256-1.125 2.532-1.615 3.829-0.037 0.097 0.258 0.062 0.295-0.037 0.49-1.297 1.028-2.573 1.615-3.829 0.040-0.088-0.251-0.058-0.295 0.037z"></path>
<path d="M5.895 13.247c0.056 0.25-0.22 0.64-0.315 0.863-0.114 0.272-0.227 0.545-0.334 0.819-0.23 0.589-0.443 1.186-0.641 1.787-0.033 0.1 0.262 0.063 0.295-0.037 0.225-0.682 0.467-1.357 0.735-2.023 0.151-0.378 0.647-1.088 0.555-1.49-0.023-0.1-0.32-0.025-0.295 0.081z"></path>
<path d="M5.37 13.069c-0.367 1.040-0.733 2.082-1.1 3.123-0.035 0.098 0.26 0.062 0.295-0.037 0.367-1.040 0.733-2.082 1.1-3.123 0.035-0.098-0.26-0.062-0.295 0.037z"></path>
<path d="M11.356 8.62c-1.968 3.536-2.719 7.614-4.857 11.066-0.072 0.116 0.223 0.090 0.276 0.007 2.139-3.451 2.889-7.53 4.857-11.066 0.067-0.123-0.228-0.093-0.276-0.007z"></path>
<path d="M11.648 9.105c-1.409 3.891-2.72 7.82-4.692 11.472-0.067 0.123 0.228 0.091 0.276 0.007 1.977-3.666 3.297-7.611 4.711-11.516 0.035-0.098-0.26-0.063-0.295 0.037z"></path>
<path d="M12.099 9.536c-0.879 2-1.529 4.086-2.234 6.151-0.339 0.991-0.691 1.98-1.091 2.949-0.242 0.585-0.503 1.165-0.789 1.731-0.121 0.239-0.429 0.592-0.362 0.87 0.009 0.037 0.060 0.042 0.090 0.044 0.125 0.007 0.206-0.023 0.279-0.123 0.014-0.019 0.014-0.042 0-0.061-0.009-0.011-0.016-0.019-0.025-0.030-0.063-0.079-0.348 0.025-0.274 0.116 0.086 0.107 0.824-1.332 0.893-1.48 0.204-0.438 0.394-0.879 0.575-1.325 0.395-0.972 0.742-1.961 1.079-2.954 0.675-1.991 1.309-3.994 2.156-5.92 0.039-0.095-0.255-0.063-0.297 0.033z"></path>
<path d="M12.436 10.212c-0.768 1.77-1.487 3.515-2.038 5.363-0.582 1.952-1.314 3.84-2.237 5.658-0.063 0.125 0.232 0.093 0.276 0.007 0.891-1.757 1.618-3.583 2.188-5.469 0.582-1.928 1.307-3.75 2.109-5.597 0.037-0.091-0.255-0.060-0.297 0.037z"></path>
<path d="M12.947 10.908c0.012-0.002 0.023-0.004 0.035-0.007 0.054-0.011 0.177-0.042 0.169-0.121-0.002-0.016-0.004-0.032-0.005-0.049-0.005-0.049-0.097-0.044-0.128-0.042-0.42 0.030-0.576 0.678-0.685 0.993-0.358 1.040-0.698 2.086-1.063 3.123-0.736 2.089-1.52 4.161-2.348 6.216-0.039 0.095 0.257 0.060 0.295-0.037 0.678-1.685 1.329-3.381 1.945-5.089 0.3-0.833 0.596-1.669 0.882-2.509 0.144-0.42 0.285-0.84 0.424-1.262 0.114-0.346 0.424-0.958 0.387-1.267 0.056-0.040 0.112-0.081 0.169-0.121-0.012 0.002-0.023 0.004-0.035 0.007-0.141 0.028-0.244 0.202-0.040 0.167z"></path>
<path d="M13.464 11.226c-0.002-0.023-0.005-0.046-0.007-0.067-0.005-0.016-0.016-0.026-0.030-0.032-0.227-0.076-0.313 0.016-0.434 0.195-0.26 0.381-0.369 1.051-0.517 1.487-0.183 0.54-0.36 1.079-0.534 1.62-0.654 2.044-1.242 4.109-1.771 6.189-0.026 0.107 0.271 0.063 0.295-0.037 0.411-1.613 0.856-3.218 1.341-4.81 0.23-0.754 0.467-1.504 0.715-2.253 0.137-0.415 0.278-0.829 0.42-1.244 0.102-0.297 0.176-0.873 0.413-1.077-0.079 0.016-0.158 0.032-0.235 0.047 0.018 0.019 0.033 0.040 0.051 0.060 0.007 0.097 0.304 0.033 0.293-0.079z"></path>
<path d="M13.284 11.653c-0.687 2.833-1.453 5.646-2.299 8.437-0.032 0.104 0.265 0.063 0.295-0.037 0.845-2.791 1.611-5.604 2.299-8.437 0.026-0.109-0.271-0.065-0.295 0.037z"></path>
<path d="M13.668 12.289c-0.705 2.557-1.411 5.115-2.116 7.672-0.030 0.105 0.267 0.063 0.295-0.037 0.705-2.557 1.411-5.116 2.116-7.672 0.030-0.105-0.267-0.063-0.295 0.037z"></path>
<path d="M14.068 13.047c-0.534 2.114-1.116 4.214-1.745 6.302-0.032 0.104 0.265 0.063 0.295-0.037 0.629-2.088 1.211-4.188 1.745-6.302 0.026-0.107-0.271-0.063-0.295 0.037z"></path>
<path d="M14.534 13.728c-0.227 0.937-0.473 1.866-0.745 2.791-0.123 0.42-0.251 0.838-0.383 1.255-0.112 0.353-0.334 0.761-0.325 1.133 0 0.035 0.067 0.044 0.090 0.044 0.018 0 0.033 0 0.051 0 0.060 0 0.19-0.028 0.206-0.102 0.004-0.014 0.005-0.028 0.009-0.040 0.023-0.111-0.274-0.063-0.295 0.037-0.004 0.014-0.005 0.028-0.009 0.040 0.069-0.033 0.137-0.069 0.206-0.102 0.183 0.002 0.747-2.297 0.821-2.553 0.242-0.842 0.464-1.689 0.671-2.539 0.026-0.107-0.271-0.063-0.295 0.037z"></path>
<path d="M14.842 14.459c-0.234 1.292-0.547 2.56-0.94 3.812-0.032 0.102 0.264 0.063 0.295-0.037 0.394-1.251 0.706-2.52 0.94-3.812 0.021-0.112-0.276-0.063-0.295 0.037z"></path>
<path d="M15.47 15.277c-0.004-0.039-0.009-0.076-0.012-0.114-0.012-0.102-0.279-0.023-0.295 0.058-0.125 0.64-0.285 1.271-0.492 1.887-0.095 0.281-0.525 0.942-0.313 1.198 0.065 0.077 0.348-0.026 0.274-0.116-0.148-0.177 0.366-1.202 0.441-1.448 0.158-0.513 0.283-1.033 0.387-1.56-0.098 0.019-0.197 0.039-0.295 0.058 0.004 0.039 0.009 0.076 0.012 0.114 0.009 0.1 0.306 0.035 0.293-0.077z"></path>
<path d="M15.413 15.929c-0.227 0.49-0.402 0.995-0.531 1.52-0.026 0.107 0.271 0.063 0.295-0.037 0.128-0.525 0.304-1.030 0.531-1.52 0.040-0.088-0.251-0.058-0.295 0.037z"></path>
<path d="M15.987 23.102c0.415-0.011 0.631 0.237 0.724 0.575 0.095-0.032 0.19-0.065 0.285-0.097-0.163-0.116-0.279-0.271-0.348-0.464-0.088 0.037-0.177 0.074-0.265 0.111 0.060 0.046 0.121 0.093 0.181 0.139 0.091-0.038 0.183-0.077 0.274-0.116-0.148-0.169-0.278-0.271-0.471-0.376-0.062-0.034-0.257 0-0.265 0.090-0.039 0.369-0.025 0.687 0.046 1.051 0.098-0.026 0.197-0.053 0.295-0.079-0.125-0.429-0.25-0.856-0.374-1.285-0.030-0.104-0.307-0.026-0.295 0.079 0.049 0.439 0.097 0.879 0.146 1.318 0.098-0.026 0.197-0.053 0.295-0.079-0.207-0.374-0.334-0.747-0.397-1.172-0.016-0.104-0.299-0.026-0.295 0.079 0.012 0.445 0.023 0.887 0.035 1.332 0.098-0.026 0.197-0.053 0.295-0.079-0.132-0.483-0.262-0.968-0.394-1.452-0.028-0.107-0.299-0.025-0.295 0.079 0.018 0.561 0.035 1.12 0.051 1.68 0.098-0.026 0.197-0.053 0.295-0.079-0.125-0.596-0.221-1.191-0.286-1.796-0.011-0.102-0.297-0.028-0.295 0.079 0.004 0.608 0.009 1.218 0.012 1.826 0.098-0.026 0.197-0.053 0.295-0.079-0.163-0.467-0.257-0.942-0.339-1.429-0.018-0.098-0.288-0.028-0.295 0.058-0.040 0.511-0.079 1.024-0.12 1.536 0.095-0.025 0.19-0.051 0.285-0.076-0.105-0.147-0.162-0.309-0.169-0.487-0.098 0.026-0.197 0.053-0.295 0.079 0.049 0.235 0.097 0.473 0.146 0.708 0.023 0.109 0.272 0.016 0.295-0.058 0.148-0.48 0.293-0.958 0.441-1.438 0.058-0.188 0.095-0.624 0.35-0.65 0.184-0.019 0.543 0.401 0.65 0.518 0.076-0.046 0.151-0.091 0.228-0.139-0.353-0.113-0.71-0.678-0.067-0.158-0.019-0.014 0.318 0.327 0.288 0.331-0.084 0.009-0.399-0.431-0.336-0.466 0.165-0.093 0.473 0.631 0.494 0.712 0.088-0.037 0.177-0.074 0.265-0.111-0.271-0.118-0.749-0.464-1.072-0.288-0.288 0.156-0.241 0.657-0.137 0.905 0.016 0.037 0.055 0.042 0.090 0.044 0.36 0.023 0.705-0.153 1.018-0.316-0.079-0.009-0.16-0.017-0.239-0.024-0.095 0.276-0.278 0.48-0.548 0.61 0.061 0.030 0.123 0.058 0.183 0.088 0.295-0.183 0.48-0.399 0.619-0.721 0.044-0.105-0.211-0.042-0.239-0.024-0.539 0.311-0.984 0.703-1.364 1.197 0.095-0.005 0.19-0.011 0.285-0.016 0.032-0.316 0.098-0.594 0.214-0.889-0.098 0.012-0.197 0.025-0.295 0.037-0.026 0.318-0.076 0.517-0.237 0.812 0.095-0.012 0.19-0.025 0.285-0.037-0.060-0.132-0.121-0.264-0.181-0.394-0.044-0.097-0.329-0.021-0.295 0.079 0.239 0.738 0.54 1.441 0.909 2.125 0.051 0.095 0.336 0.014 0.295-0.079-0.292-0.673-0.49-1.362-0.599-2.088-0.098 0.026-0.197 0.053-0.295 0.079 0.283 0.685 0.518 1.383 0.708 2.098 0.026 0.102 0.316 0.026 0.295-0.079-0.118-0.583-0.235-1.165-0.353-1.748-0.098 0.026-0.197 0.053-0.295 0.079 0.202 0.909 0.404 1.815 0.606 2.724 0.098-0.026 0.197-0.053 0.295-0.079-0.562-1.067-1.054-2.161-1.478-3.29-0.037-0.1-0.311-0.028-0.295 0.079 0.035 0.232 0.070 0.466 0.105 0.698 0.095-0.032 0.19-0.065 0.285-0.097-0.179-0.197-0.13-0.476-0.45-0.416-0.056 0.011-0.151 0.035-0.169 0.1-0.062 0.246-0.018 0.508-0.007 0.761 0.004 0.093 0.3 0.035 0.295-0.079-0.021-0.497-0.044-0.996-0.065-1.494-0.004-0.095-0.288-0.032-0.295 0.058-0.039 0.527-0.076 1.054-0.114 1.58 0.098-0.019 0.197-0.039 0.295-0.058-0.053-0.55-0.105-1.098-0.16-1.648-0.098 0.026-0.197 0.053-0.295 0.079 0.047 0.334 0.095 0.668 0.142 1.002 0.014 0.097 0.293 0.030 0.295-0.058 0.004-0.334 0.012-1.434 0.348-1.625 0.569-0.327 1.172 0.36 1.522 0.733 0.084-0.044 0.17-0.086 0.255-0.13-0.334-0.198-0.626-0.425-0.9-0.698-0.084 0.044-0.17 0.086-0.255 0.13 0.353 0.186 0.706 0.374 1.061 0.561 0.079-0.047 0.156-0.095 0.235-0.142-0.455-0.209-0.889-0.446-1.314-0.715-0.079 0.047-0.156 0.095-0.235 0.142 0.163 0.062 0.306 0.156 0.429 0.283 0.313 0.281 0.095 0.422-0.654 0.424-0.086-0.042-0.357 0.083-0.235 0.142 0.36 0.179 0.909 0.253 1.234-0.063 0.39-0.378-0.206-0.773-0.538-0.93-0.079-0.037-0.358 0.063-0.235 0.142 0.424 0.269 0.858 0.506 1.314 0.715 0.083 0.039 0.36-0.077 0.235-0.142-0.353-0.186-0.706-0.374-1.061-0.561-0.062-0.033-0.341 0.044-0.255 0.13 0.29 0.286 0.589 0.517 0.938 0.724 0.063 0.037 0.336-0.042 0.255-0.13-0.358-0.381-1.053-1.146-1.669-0.956-0.703 0.216-0.763 1.439-0.77 2.002 0.098-0.019 0.197-0.039 0.295-0.058-0.047-0.334-0.095-0.668-0.142-1.002-0.014-0.1-0.306-0.030-0.295 0.079 0.053 0.55 0.105 1.098 0.16 1.648 0.009 0.097 0.29 0.030 0.295-0.058 0.039-0.527 0.076-1.054 0.114-1.58-0.098 0.019-0.197 0.039-0.295 0.058 0.021 0.497 0.044 0.996 0.065 1.494 0.098-0.026 0.197-0.053 0.295-0.079-0.011-0.225-0.047-0.499 0.007-0.719-0.056 0.033-0.112 0.067-0.169 0.1 0.014-0.002 0.17 0.322 0.214 0.369 0.060 0.067 0.3 0.007 0.285-0.097-0.035-0.232-0.070-0.466-0.105-0.698-0.098 0.026-0.197 0.053-0.295 0.079 0.424 1.128 0.916 2.225 1.478 3.29 0.049 0.092 0.32 0.030 0.295-0.079-0.202-0.909-0.404-1.815-0.606-2.724-0.023-0.102-0.316-0.028-0.295 0.079 0.118 0.583 0.235 1.165 0.353 1.749 0.098-0.026 0.197-0.053 0.295-0.079-0.19-0.715-0.425-1.413-0.708-2.098-0.040-0.098-0.311-0.028-0.295 0.079 0.111 0.726 0.307 1.415 0.599 2.088 0.098-0.026 0.197-0.053 0.295-0.079-0.367-0.682-0.67-1.387-0.909-2.125-0.098 0.026-0.197 0.053-0.295 0.079 0.060 0.132 0.121 0.264 0.181 0.394 0.042 0.091 0.246 0.035 0.285-0.037 0.153-0.279 0.232-0.534 0.258-0.854 0.011-0.13-0.264-0.044-0.295 0.037-0.118 0.295-0.183 0.573-0.214 0.889-0.012 0.132 0.246 0.037 0.285-0.016 0.357-0.466 0.763-0.822 1.272-1.114-0.079-0.009-0.16-0.017-0.239-0.025-0.090 0.26-0.258 0.459-0.506 0.596-0.172 0.107 0.090 0.139 0.183 0.088 0.32-0.177 0.515-0.397 0.661-0.734 0.046-0.106-0.213-0.041-0.239-0.025-0.22 0.216-0.448 0.263-0.685 0.142-0.090-0.195-0.070-0.35 0.056-0.462 0.169-0.095 0.485 0.123 0.68 0.209 0.062 0.026 0.292-0.005 0.265-0.111-0.114-0.453-0.654-1.151-1.153-0.747-0.018 0.014-0.035 0.040-0.030 0.063 0.107 0.425 0.62 1.005 1.077 0.735 0.026-0.016 0.065-0.047 0.056-0.083-0.109-0.462-0.822-1.076-1.314-0.817-0.033 0.018-0.056 0.046-0.056 0.083 0.004 0.332 0.283 0.497 0.564 0.585 0.053 0.018 0.308-0.051 0.228-0.139-0.257-0.279-0.771-0.801-1.195-0.533-0.2 0.127-0.232 0.366-0.3 0.578-0.178 0.557-0.343 1.118-0.515 1.677 0.098-0.019 0.197-0.039 0.295-0.058-0.049-0.236-0.097-0.473-0.146-0.708-0.021-0.102-0.311-0.028-0.295 0.079 0.030 0.211 0.083 0.344 0.19 0.524 0.044 0.074 0.278 0.005 0.285-0.075 0.040-0.511 0.079-1.025 0.12-1.536-0.098 0.019-0.197 0.039-0.295 0.058 0.083 0.487 0.176 0.961 0.339 1.429 0.037 0.107 0.297 0.025 0.295-0.079-0.004-0.608-0.009-1.218-0.012-1.826-0.098 0.026-0.197 0.053-0.295 0.079 0.067 0.604 0.162 1.2 0.286 1.796 0.023 0.106 0.299 0.025 0.295-0.079-0.018-0.561-0.035-1.119-0.051-1.68-0.098 0.026-0.197 0.053-0.295 0.079 0.132 0.483 0.262 0.968 0.394 1.451 0.028 0.107 0.299 0.025 0.295-0.079-0.012-0.445-0.023-0.887-0.035-1.332-0.098 0.026-0.197 0.053-0.295 0.079 0.063 0.423 0.19 0.796 0.397 1.172 0.051 0.093 0.308 0.033 0.295-0.079-0.049-0.439-0.097-0.879-0.146-1.318-0.098 0.026-0.197 0.053-0.295 0.079 0.125 0.429 0.25 0.856 0.374 1.285 0.030 0.102 0.316 0.026 0.295-0.079-0.065-0.339-0.081-0.666-0.046-1.009-0.088 0.030-0.177 0.060-0.265 0.090 0.176 0.079 0.32 0.195 0.431 0.348 0.065 0.074 0.348-0.023 0.274-0.116-0.105-0.132-0.065-0.1-0.221-0.167-0.051-0.021-0.311 0.011-0.265 0.111 0.098 0.213 0.188 0.343 0.369 0.501 0.060 0.053 0.315 0.012 0.285-0.097-0.123-0.441-0.453-0.673-0.905-0.663-0.107-0.002-0.309 0.169-0.111 0.163z"></path>
</symbol>
<symbol id="icon-lamp" viewBox="0 0 33 32">
<path d="M14.458 26.398c0.056-0.812-0.202-1.511-0.939-1.903-0.84-0.448-1.795-0.628-2.628-1.091-0.811-0.45-1.482-1.237-2.052-1.958-0.568-0.719-1.051-1.502-1.44-2.331-0.761-1.623-1.319-3.595-1.143-5.399 0.197-2.023 1.272-3.86 2.588-5.364 2.753-3.142 7.865-4.326 11.652-2.447 0.915 0.454 1.727 1.054 2.517 1.696 0.324 0.263 0.642 0.54 0.913 0.858 0.185 0.217 0.316 0.446 0.465 0.688 0.147 0.237 0.336 0.437 0.481 0.682 0.585 0.985 0.795 2.025 0.953 3.148 0.079 0.557 0.136 1.118 0.175 1.679 0.041 0.594 0.116 1.233 0.046 1.824-0.119 0.994-0.616 2.052-1.065 2.935-0.448 0.879-0.991 1.71-1.613 2.476-0.665 0.819-1.422 1.562-2.245 2.223-0.739 0.594-1.525 0.956-1.386 2.044 0.011 0.088 0.276 0.028 0.263-0.071-0.086-0.676 0.203-1.085 0.731-1.469 0.38-0.276 0.746-0.569 1.1-0.877 0.697-0.609 1.34-1.28 1.913-2.007 1.109-1.407 1.948-3.022 2.442-4.744 0.304-1.060 0.11-2.292-0.008-3.377-0.126-1.148-0.262-2.354-0.793-3.395-0.238-0.464-0.533-0.852-0.808-1.286-0.255-0.402-0.537-0.75-0.891-1.071-0.723-0.657-1.525-1.263-2.369-1.754-3.344-1.949-7.848-1.493-10.986 0.684-1.603 1.112-2.904 2.777-3.688 4.557-0.832 1.887-0.789 3.804-0.261 5.766 0.531 1.976 1.54 3.804 2.953 5.286 0.353 0.37 0.722 0.748 1.158 1.019 0.475 0.296 1.002 0.483 1.526 0.67 0.504 0.18 1.037 0.353 1.49 0.644 0.574 0.368 0.731 1.058 0.688 1.699-0.009 0.106 0.255 0.054 0.261-0.034z"></path>
<path d="M14.209 26.435c0.266 0.353 0.896 0.368 1.293 0.407 0.598 0.058 1.17 0.107 1.76-0.026 0.638-0.143 1.287-0.182 1.924-0.33 0.292-0.068 0.645-0.137 0.765-0.44 0.034-0.085-0.229-0.054-0.263 0.033-0.113 0.286-0.757 0.31-1.011 0.373-0.422 0.105-0.865 0.098-1.292 0.196-0.54 0.125-1.016 0.108-1.559 0.063-0.398-0.033-1.104-0.021-1.374-0.379-0.052-0.072-0.307 0.019-0.243 0.102z"></path>
<path d="M14.182 26.301c-0.31 0.377-0.175 1.218-0.13 1.659 0.055 0.545 0.065 1.311 0.354 1.795 0.286 0.476 0.835 0.655 1.341 0.784 0.612 0.156 1.288 0.315 1.923 0.286 0.524-0.025 1.121-0.178 1.573-0.45 0.534-0.323 0.79-0.683 0.924-1.292 0.123-0.558 0.131-1.175 0.086-1.742-0.031-0.394-0.042-0.966-0.277-1.293-0.049-0.069-0.234-0.002-0.254 0.068-0.004 0.013-0.007 0.026-0.011 0.039 0.038-0.027 0.076-0.055 0.114-0.082-0.007 0.002-0.014 0.003-0.021 0.006-0.158 0.041-0.123 0.173 0.035 0.132 0.080-0.021 0.123-0.047 0.147-0.127-0.085 0.022-0.169 0.046-0.254 0.068 0.188 0.262 0.221 0.756 0.247 1.067 0.039 0.484 0.015 0.955-0.014 1.439-0.035 0.576-0.183 1.137-0.668 1.491-0.577 0.422-1.379 0.595-2.084 0.505-0.483-0.061-0.999-0.167-1.466-0.303-0.5-0.146-1.007-0.372-1.188-0.904-0.153-0.451-0.185-0.999-0.233-1.468-0.046-0.44-0.21-1.287 0.103-1.669 0.072-0.091-0.192-0.074-0.247-0.007z"></path>
<path d="M14.735 30.176c-0.094 0.272-0.012 0.731 0.060 1.005 0.069 0.265 0.208 0.447 0.47 0.529 0.344 0.108 0.737 0.104 1.092 0.129 0.414 0.031 0.842 0.061 1.256 0.027 0.349-0.029 0.688-0.141 1.031-0.207 0.23-0.044 0.513-0.078 0.719-0.196 0.57-0.326 0.508-1.020 0.508-1.58 0-0.081-0.263-0.032-0.263 0.071 0 0.649 0.049 1.338-0.746 1.516-0.517 0.116-1.063 0.259-1.59 0.253-0.523-0.006-1.097-0.001-1.609-0.115-0.396-0.088-0.568-0.25-0.627-0.649-0.036-0.243-0.119-0.58-0.038-0.816 0.032-0.089-0.232-0.056-0.262 0.033z"></path>
<path d="M15.953 30.991c-0.005-0.003-0.009-0.007-0.014-0.011-0.075 0.039-0.152 0.076-0.227 0.115 0.167 0.090 0.344 0.141 0.534 0.116 0.053-0.007 0.13-0.033 0.149-0.089 0.005-0.014 0.009-0.028 0.014-0.041 0.004-0.013 0-0.025-0.009-0.035-0.135-0.136-0.361-0.193-0.527-0.289-0.17-0.1-0.321-0.246-0.501-0.322-0.069 0.042-0.14 0.085-0.209 0.127 0.24 0.094 0.464 0.27 0.732 0.21 0.044-0.009 0.121-0.046 0.114-0.101-0.019-0.145-0.355-0.309-0.455-0.367-0.108-0.062-0.223-0.128-0.348-0.062-0.373 0.198 0.195 0.655 0.38 0.771 0.058 0.036 0.288-0.026 0.227-0.115-0.149-0.221-0.381-0.393-0.603-0.536-0.058-0.038-0.165 0.005-0.21 0.042-0.266 0.215 0.314 0.913 0.556 0.951 0.046 0.007 0.246-0.022 0.213-0.107-0.102-0.262-0.262-0.56-0.55-0.641-0.072-0.020-0.181 0.019-0.213 0.088-0.174 0.382 0.387 0.877 0.75 0.887 0.342 0.009 0.292-0.23 0.127-0.431-0.179-0.219-0.444-0.304-0.597-0.006-0.135 0.263 0.036 0.428 0.297 0.335 0.040-0.014 0.080-0.045 0.080-0.089-0.001-0.153-0.238-0.261-0.326-0.384-0.129-0.186-0.14-0.42-0.26-0.594-0.045-0.065-0.289 0.008-0.254 0.087 0.169 0.373 1.172 1.72 1.578 0.866 0.297-0.627-0.853-0.514-1.144-0.297-0.043 0.032-0.028 0.086 0.025 0.093 0.237 0.032 0.469 0.093 0.707 0.125 0.215 0.028 0.429 0.014 0.642 0.071 0.043-0.048 0.088-0.098 0.132-0.146-0.341-0.029-0.758-0.304-1.052-0.474-0.059-0.034-0.287 0.022-0.227 0.115 0.121 0.188 0.477 0.252 0.674 0.276 0.162 0.020 0.575-0.049 0.688 0.047 0.035-0.039 0.069-0.079 0.105-0.118-0.203 0.048-0.978-0.25-1.175-0.41-0.058 0.042-0.115 0.085-0.174 0.126 0.242-0.011 0.503 0.083 0.741 0.128 0.167 0.032 0.409 0.021 0.56 0.106 0.029-0.044 0.058-0.086 0.087-0.129-0.344 0.091-0.784-0.179-1.124-0.225-0.051-0.007-0.307 0.087-0.186 0.135 0.485 0.195 1.058 0.081 1.539 0.263 0.047 0.009 0.094 0.019 0.14 0.028 0.081 0.119 0.062 0.172-0.055 0.16-0.092 0.072-0.38 0.054-0.485 0.063-0.354 0.028-0.685-0.008-1.038-0.040-0.034 0.049-0.068 0.1-0.102 0.149 0.507 0.040 1.038 0.026 1.539 0.083 0.021-0.046 0.042-0.092 0.063-0.137-0.562 0.176-1.179-0.009-1.75 0.045-0.045 0.005-0.193 0.055-0.14 0.125 0.127 0.169 0.491 0.146 0.677 0.152 0.235 0.008 0.473-0.007 0.706-0.021 0.086-0.005 0.33-0.071 0.413-0.032 0.018-0.039 0.035-0.079 0.053-0.118-0.378 0.143-0.849 0.102-1.198 0.324-0.098 0.062-0.023 0.119 0.063 0.112 0.524-0.043 1.016-0.327 1.508-0.492 0.255-0.086 0.71-0.131 0.878-0.356 0.039-0.052-0.034-0.074-0.072-0.078-0.643-0.051-1.293 0.216-1.931 0.27 0 0.046 0 0.093 0 0.139 0.737-0.179 1.494-0.281 2.232-0.456 0.16-0.038 0.123-0.168-0.035-0.132-0.408 0.092-0.806 0.155-1.22 0.208-0.122 0.015-0.71 0.157-0.797 0.079-0.035 0.039-0.069 0.079-0.105 0.118 0.51-0.108 1.061-0.088 1.576-0.046 0.101 0.008 0.28-0.135 0.102-0.149-0.561-0.046-1.16-0.054-1.715 0.063-0.028 0.006-0.16 0.067-0.105 0.118 0.151 0.139 0.618 0.012 0.791-0.009 0.509-0.061 1.005-0.136 1.506-0.249-0.012-0.044-0.023-0.088-0.035-0.132-0.738 0.175-1.494 0.277-2.232 0.456-0.122 0.029-0.157 0.152 0 0.139 0.615-0.052 1.247-0.315 1.864-0.266-0.023-0.026-0.047-0.052-0.072-0.078 0.026-0.034 0.073 0 0.013-0.009-0.042-0.007-0.131 0.045-0.168 0.059-0.222 0.079-0.445 0.154-0.669 0.233-0.414 0.147-0.838 0.389-1.281 0.427 0.021 0.038 0.042 0.075 0.063 0.112 0.319-0.202 0.783-0.16 1.138-0.295 0.038-0.014 0.127-0.083 0.053-0.118-0.125-0.058-0.26-0.012-0.39 0.001-0.255 0.026-1.187 0.17-1.372-0.075-0.047 0.041-0.094 0.084-0.14 0.125 0.598-0.058 1.233 0.126 1.822-0.059 0.048-0.015 0.19-0.122 0.063-0.137-0.522-0.061-1.070-0.048-1.598-0.091-0.101-0.008-0.28 0.134-0.102 0.149 0.543 0.048 1.047 0.067 1.589-0.027 0.213-0.036 0.457-0.062 0.548-0.284 0.003-0.013 0-0.025-0.009-0.035-0.141-0.179-0.504-0.17-0.708-0.2-0.392-0.056-0.838-0.055-1.209-0.204-0.062 0.045-0.123 0.091-0.186 0.135 0.437 0.060 0.873 0.33 1.321 0.214 0.045-0.012 0.173-0.081 0.087-0.129-0.17-0.098-0.419-0.086-0.608-0.121-0.263-0.049-0.53-0.147-0.799-0.134-0.032 0.001-0.252 0.062-0.174 0.126 0.213 0.172 0.55 0.257 0.802 0.364 0.232 0.099 0.408 0.133 0.654 0.075 0.026-0.006 0.162-0.068 0.105-0.118-0.339-0.287-1.066 0.139-1.362-0.322-0.075 0.039-0.152 0.076-0.227 0.115 0.351 0.202 0.746 0.461 1.159 0.496 0.069 0.006 0.279-0.107 0.132-0.146-0.286-0.076-0.585-0.061-0.877-0.112-0.126-0.021-0.239-0.063-0.352-0.028-0.141 0.043 0.123 0.014 0.136 0.016 0.116 0.019 0.418 0.007 0.49 0.149-0.101 0.21-0.206 0.256-0.314 0.137-0.051-0.033-0.095-0.071-0.136-0.115-0.238-0.221-0.518-0.536-0.652-0.832-0.085 0.029-0.169 0.058-0.254 0.087 0.092 0.134 0.11 0.342 0.196 0.49 0.072 0.125 0.368 0.328 0.369 0.456 0.027-0.029 0.053-0.060 0.080-0.089 0.18-0.063-0.068-0.286 0.159-0.119 0.071 0.052 0.149 0.173 0.112 0.261 0.049-0.029 0.1-0.060 0.149-0.089-0.299 0.038-0.766-0.464-0.63-0.763-0.071 0.029-0.141 0.059-0.213 0.088 0.226 0.063 0.373 0.375 0.448 0.568 0.071-0.035 0.141-0.072 0.213-0.107-0.145-0.022-0.648-0.651-0.507-0.765-0.071 0.014-0.14 0.028-0.21 0.042 0.205 0.132 0.431 0.309 0.568 0.511 0.075-0.039 0.152-0.076 0.227-0.115-0.086-0.054-0.487-0.416-0.408-0.434 0.028-0.006 0.357 0.28 0.359 0.289 0.038-0.034 0.076-0.067 0.114-0.101-0.113 0.026-0.378-0.163-0.487-0.206-0.076-0.029-0.321 0.080-0.209 0.127 0.116 0.049 0.969 0.592 0.969 0.594 0.049-0.029 0.1-0.060 0.149-0.089-0.129 0.007-0.249-0.026-0.361-0.098-0.060-0.033-0.304 0.056-0.227 0.115 0.005 0.003 0.009 0.007 0.014 0.011 0.080 0.052 0.322-0.052 0.25-0.108z"></path>
<path d="M18.357 31.245c-0.307 0.088-0.617 0.149-0.935 0.182-0.172 0.018-0.346 0.002-0.51 0.053-0.051 0.015-0.189 0.119-0.064 0.138 0.665 0.099 1.454-0.011 2.11-0.133 0.050-0.009 0.243-0.114 0.099-0.145-0.308-0.065-0.676-0.060-0.989-0.053-0.2 0.005-0.381 0.009-0.538 0.141-0.012 0.009-0.034 0.038-0.026 0.056 0.237 0.522 1.923 0.116 1.721-0.247-0.122-0.22-0.904-0.127-1.053-0.112-0.366 0.038-1.002 0.136-1.248 0.454-0.028 0.036 0.007 0.068 0.042 0.074 0.423 0.080 0.863-0.119 1.252-0.266 0.328-0.125 0.839-0.25 1.079-0.533 0.029-0.034-0.008-0.069-0.042-0.074-0.407-0.063-0.85 0.081-1.254 0.14-0.249 0.036-0.575-0.002-0.797 0.134-0.099 0.060-0.023 0.121 0.063 0.112 0.403-0.042 0.815-0.112 1.215-0.183 0.147-0.026 0.398-0.052 0.473-0.207 0.013-0.026 0.014-0.054-0.018-0.067-0.483-0.194-1.113-0.005-1.61 0.020-0.012 0.047-0.022 0.094-0.034 0.141 0.54-0.127 1.094-0.19 1.646-0.234-0.021-0.038-0.042-0.075-0.063-0.112-0.326 0.22-0.929 0.276-1.132 0.649-0.039 0.071 0.058 0.081 0.105 0.075 0.333-0.034 0.651-0.198 0.936-0.366 0.123-0.074 0.455-0.217 0.466-0.391 0.005-0.074-0.106-0.059-0.149-0.049-0.4 0.089-0.718 0.411-1.113 0.505 0.023 0.040 0.047 0.080 0.069 0.12 0.413-0.204 1.157-0.303 1.449-0.696 0.026-0.035-0.006-0.069-0.042-0.074-0.174-0.025-0.317 0.069-0.397 0.226-0.036 0.072 0.056 0.079 0.105 0.075 0.197-0.012 0.299-0.153 0.383-0.321 0.059-0.119-0.2-0.067-0.246-0.006-0.176 0.239-0.289 0.517-0.463 0.759 0.082 0.002 0.163 0.003 0.246 0.006 0.090-0.175 0.331-0.635 0.515-0.726-0.061-0.006-0.122-0.013-0.183-0.019 0.063 0.353-0.299 0.726-0.507 0.978 0.085-0.005 0.169-0.009 0.254-0.014 0.066-0.249 0.261-0.711 0.487-0.869-0.068 0.005-0.136 0.008-0.204 0.013 0.126 0.196-0.11 0.717-0.229 0.875 0.082 0.002 0.163 0.003 0.246 0.006 0.039-0.075 0.076-0.15 0.112-0.228 0.048-0.1-0.127-0.078-0.175-0.056-0.372 0.161-0.71 0.406-1.112 0.49 0.049 0.011 0.1 0.020 0.149 0.031-0.069-0.167 1.131-0.726 1.152-0.735-0.053-0.025-0.105-0.050-0.158-0.075-0.156 0.141-0.349 0.254-0.531 0.36-0.116 0.115-0.249 0.157-0.4 0.126 0.096-0.111 0.209-0.199 0.337-0.265 0.156-0.091-0.080-0.122-0.163-0.078-0.234 0.122-0.509 0.24-0.764 0.306-0.257 0.067-0.409 0.087-0.1 0.034 0.443-0.076 0.866-0.256 1.318-0.289 0-0.046 0-0.093 0-0.139-0.477 0.115-0.936 0.244-1.428 0.294-0.17 0.018-0.57 0.076-0.227-0.038 0.115-0.039 0.236-0.065 0.355-0.093 0.402-0.093 0.812-0.145 1.215-0.236-0.033-0.035-0.066-0.071-0.1-0.105-0.27 0.145-0.558 0.185-0.856 0.227-0.2 0.028-0.565 0.134-0.755 0.035-0.018 0.039-0.035 0.079-0.053 0.118 0.252-0.099 0.576-0.063 0.843-0.101 0.315-0.045 0.628-0.116 0.949-0.094-0.023-0.026-0.047-0.052-0.072-0.078-0.183 0.347-1.034 0.54-1.374 0.643-0.15 0.046-0.304 0.067-0.411 0.19-0.031 0.034 0.008 0.069 0.042 0.074 0.438 0.072 0.853-0.076 1.286-0.132-0.012-0.042-0.022-0.085-0.034-0.127-0.467 0.179-1.038 0.22-1.533 0.217-0.065 0-0.282 0.126-0.132 0.146 0.309 0.043 0.622 0.048 0.931 0.005-0.021-0.038-0.042-0.074-0.063-0.112-0.133 0.068-0.475 0.095-0.624 0.094-0.066 0-0.281 0.128-0.132 0.146 0.54 0.067 1.044-0.026 1.541-0.242 0.282-0.122 0.884-0.368 0.948-0.718 0.021-0.12-0.221-0.023-0.254 0.014-0.021 0.024-0.042 0.047-0.062 0.071-0.075 0.085 0.189 0.069 0.246 0.006 0.021-0.023 0.042-0.047 0.062-0.071-0.085 0.005-0.169 0.009-0.254 0.014-0.049 0.275-0.575 0.484-0.788 0.577-0.409 0.177-0.83 0.263-1.275 0.208-0.044 0.048-0.088 0.098-0.132 0.146 0.288 0.002 0.631-0.032 0.89-0.165 0.103-0.053 0.020-0.123-0.063-0.112-0.262 0.036-0.544 0.034-0.806-0.002-0.043 0.048-0.088 0.098-0.132 0.146 0.574 0.003 1.2-0.052 1.739-0.259 0.116-0.045 0.086-0.142-0.034-0.127-0.267 0.034-0.53 0.099-0.796 0.141-0.467 0.074-0.195 0.039-0.096-0.002 0.121-0.050 0.25-0.082 0.374-0.126 0.36-0.127 0.989-0.268 1.185-0.636 0.028-0.054-0.025-0.074-0.072-0.078-0.369-0.026-0.724 0.059-1.087 0.107-0.302 0.040-0.624 0.016-0.911 0.129-0.040 0.016-0.125 0.080-0.053 0.118 0.262 0.138 0.657 0.022 0.929-0.016 0.372-0.053 0.722-0.116 1.056-0.295 0.133-0.071-0.022-0.122-0.1-0.105-0.273 0.062-2.027 0.213-1.98 0.605 0.002 0.021 0.035 0.033 0.051 0.036 0.684 0.132 1.426-0.148 2.084-0.307 0.122-0.029 0.156-0.15 0-0.139-0.416 0.031-0.83 0.163-1.234 0.265-0.201 0.049-0.475 0.087-0.602 0.269-0.025 0.035 0.003 0.069 0.042 0.074 0.484 0.056 1.053-0.216 1.468-0.434-0.054-0.026-0.109-0.052-0.163-0.078-0.154 0.089-0.69 0.421-0.386 0.581 0.138 0.073 0.507-0.139 0.611-0.193 0.257-0.134 0.527-0.291 0.743-0.487 0.108-0.099-0.107-0.094-0.158-0.075-0.159 0.060-1.432 0.627-1.312 0.915 0.022 0.054 0.106 0.040 0.149 0.031 0.43-0.091 0.784-0.341 1.18-0.514-0.059-0.019-0.116-0.038-0.175-0.056-0.035 0.076-0.073 0.153-0.112 0.228-0.060 0.119 0.2 0.066 0.246 0.006 0.163-0.216 0.397-0.719 0.228-0.984-0.034-0.054-0.168-0.013-0.205 0.013-0.295 0.206-0.496 0.638-0.587 0.979-0.031 0.114 0.222 0.025 0.254-0.014 0.233-0.281 0.596-0.661 0.526-1.054-0.012-0.066-0.152-0.035-0.183-0.019-0.289 0.145-0.515 0.554-0.656 0.829-0.060 0.116 0.2 0.068 0.246 0.006 0.174-0.242 0.286-0.521 0.463-0.759-0.082-0.002-0.163-0.003-0.246-0.006-0.008 0.018-0.083 0.18-0.101 0.181 0.035 0.025 0.069 0.051 0.105 0.075 0.102-0.197-0.536 0.101-0.582 0.12-0.259 0.108-0.525 0.186-0.777 0.31-0.139 0.068-0.055 0.15 0.069 0.12 0.396-0.095 0.716-0.417 1.113-0.505-0.049-0.016-0.1-0.033-0.149-0.049-0.015 0.249-0.972 0.564-1.102 0.578 0.035 0.025 0.069 0.051 0.105 0.075 0.182-0.333 0.755-0.376 1.050-0.576 0.095-0.065 0.025-0.119-0.063-0.112-0.576 0.046-1.154 0.116-1.717 0.248-0.082 0.019-0.179 0.148-0.034 0.141 0.226-0.011 0.448-0.044 0.672-0.066 0.165-0.015 0.391-0.038 0.563-0.019 0.075 0.008 0.21-0.026 0.083 0.036-0.102 0.051-0.275 0.040-0.39 0.056-0.283 0.039-0.567 0.102-0.851 0.133 0.021 0.038 0.042 0.075 0.063 0.112 0.102-0.062 0.487-0.051 0.597-0.067 0.249-0.036 0.507-0.094 0.758-0.11 0.116-0.008 0.217-0.075 0.092 0.029-0.079 0.066-0.209 0.093-0.303 0.134-0.314 0.135-0.655 0.293-0.991 0.359-0.256 0.051-0.223 0.014-0.005-0.066 0.174-0.063 0.355-0.108 0.54-0.132 0.052-0.007 0.838-0.086 0.89 0.033 0.045 0.103-0.336 0.226-0.402 0.236-0.166 0.035-0.335 0.039-0.505 0.008 0-0.041 0-0.081 0.001-0.122 0.155-0.066 0.702 0.016 0.859 0.048 0.033-0.048 0.066-0.096 0.099-0.145-0.617 0.115-1.362 0.228-1.985 0.136-0.021 0.046-0.042 0.092-0.063 0.138 0.196-0.060 0.451-0.036 0.655-0.065 0.268-0.036 0.529-0.096 0.789-0.17 0.161-0.050 0.128-0.183-0.031-0.137z"></path>
<path d="M13.983 27.152c0.212 0.040 0.431 0.243 0.645 0.304 0.274 0.079 0.57 0.11 0.852 0.138 0.594 0.056 1.198-0.016 1.794 0.006 0.505 0.020 1.030 0.101 1.531 0.002 0.368-0.073 0.913-0.062 1.233-0.277 0.154-0.102-0.082-0.12-0.163-0.078-0.022 0.012-0.046 0.023-0.068 0.035-0.156 0.081 0.076 0.122 0.163 0.078 0.022-0.012 0.046-0.023 0.068-0.035-0.054-0.026-0.109-0.052-0.163-0.078-0.132 0.088-0.34 0.067-0.488 0.090-0.281 0.046-0.554 0.135-0.839 0.156-0.494 0.035-0.996-0.045-1.491-0.046-0.545-0.001-1.097 0.040-1.637-0.026-0.269-0.033-0.557-0.062-0.806-0.175-0.182-0.082-0.272-0.201-0.468-0.238-0.085-0.016-0.31 0.114-0.162 0.142z"></path>
<path d="M14.281 28.187c0.97 0.503 2.257 0.373 3.316 0.436 0.53 0.032 0.991-0.027 1.512-0.099 0.343-0.047 0.704-0.032 1.022-0.188 0.109-0.053 0.090-0.137-0.034-0.127-0.034 0.002-0.068 0.006-0.102 0.008-0.047 0.003-0.139 0.034-0.149 0.089-0.002 0.011-0.005 0.022-0.007 0.033-0.020 0.1 0.246 0.058 0.263-0.033 0.002-0.011 0.005-0.022 0.007-0.033-0.049 0.029-0.1 0.060-0.149 0.089 0.034-0.002 0.068-0.006 0.102-0.008-0.012-0.042-0.022-0.085-0.034-0.127-0.248 0.121-0.609 0.109-0.882 0.15-0.49 0.073-0.946 0.125-1.445 0.095-1.024-0.060-2.273 0.072-3.208-0.414-0.079-0.040-0.32 0.072-0.212 0.127z"></path>
<path d="M14.241 29.272c0.458 0.282 0.958 0.424 1.496 0.455 0.56 0.032 1.126 0.060 1.686 0.082 0.523 0.021 1.072 0.006 1.589-0.073 0.328-0.050 0.745-0.052 1.026-0.241 0.053-0.035 0.075-0.090-0.001-0.11-0.009-0.002-0.019-0.005-0.028-0.008-0.084-0.022-0.309 0.103-0.161 0.143 0.009 0.002 0.019 0.005 0.028 0.008 0-0.036-0.001-0.074-0.001-0.11-0.215 0.143-0.662 0.16-0.922 0.19-0.538 0.065-1.106 0.079-1.646 0.034-0.973-0.081-1.995 0.034-2.859-0.498-0.072-0.045-0.315 0.062-0.208 0.128z"></path>
<path d="M25.138 6.415c0.025 0.020 1.386-1.136 1.516-1.245 0.165-0.139 0.322-0.286 0.482-0.429 0.081-0.073 0.23-0.276 0.323-0.296 0.165-0.035 0.136 0.049 0.232 0.206 0.086 0.141 0.18 0.272 0.274 0.407 0.078 0.111 0.329 0.394 0.286 0.522 0.018 0.011 0.036 0.022 0.054 0.033-0.1 0.007-0.199 0.021-0.296 0.043-0.302 0.065-0.599 0.169-0.897 0.259-0.682 0.205-1.394 0.525-2.109 0.567-0.092 0.006-0.234 0.148-0.069 0.148 0.039 0 0.079 0 0.118 0 0.099 0 0.28-0.149 0.102-0.149-0.039 0-0.079 0-0.118 0-0.023 0.049-0.046 0.099-0.069 0.148 0.898-0.053 1.796-0.467 2.653-0.721 0.236-0.071 0.531-0.078 0.756-0.169 0.044-0.018 0.094-0.022 0.122-0.067 0.127-0.193-0.185-0.567-0.289-0.716-0.13-0.188-0.311-0.694-0.536-0.761-0.202-0.060-0.387 0.175-0.504 0.287-0.728 0.688-1.563 1.25-2.282 1.947-0.016 0.016-0.044 0.052-0.017 0.073 0.007 0.006 0.014 0.012 0.022 0.018 0.073 0.059 0.317-0.045 0.246-0.103z"></path>
<path d="M5.724 8.418c0.005 0.086-0.001 0.068 0.059 0.129 0.075-0.039 0.152-0.076 0.227-0.115-0.342-0.22-0.703-0.393-1.039-0.632-0.286-0.205-0.57-0.414-0.862-0.609-0.288-0.193-0.595-0.361-0.898-0.53-0.133-0.074-0.33-0.085-0.259-0.294 0.023-0.069 0.287-0.202 0.344-0.242 0.312-0.221 0.682-0.469 1.045-0.594 0.232-0.079 0.252 0.031 0.386 0.234 0.114 0.173 0.207 0.366 0.294 0.554 0.319 0.691 0.473 1.436 0.791 2.128 0.041 0.088 0.272 0.026 0.263-0.071-0.001-0.009-0.001-0.019-0.002-0.028-0.007-0.086-0.272-0.031-0.263 0.071 0.001 0.009 0.001 0.019 0.002 0.028 0.088-0.024 0.175-0.047 0.263-0.071-0.213-0.462-0.34-0.939-0.508-1.417-0.175-0.498-0.406-0.951-0.661-1.412-0.103-0.187-0.155-0.315-0.389-0.269-0.194 0.038-0.408 0.209-0.581 0.297-0.213 0.108-0.424 0.217-0.625 0.346-0.18 0.115-0.654 0.319-0.677 0.551-0.021 0.207 0.431 0.355 0.558 0.428 0.509 0.29 0.987 0.609 1.461 0.952 0.368 0.267 0.765 0.464 1.144 0.708 0.056 0.036 0.3-0.041 0.227-0.115-0.013-0.032-0.027-0.065-0.040-0.096-0.002-0.086-0.267-0.032-0.261 0.069z"></path>
<path d="M4.402 17.548c-1.124 0.383-2.286 0.266-3.437 0.487-0.193 0.038-0.728 0.049-0.857 0.236-0.076 0.11-0.015 0.146 0.034 0.242 0.122 0.24 0.279 0.441 0.369 0.709 0.086 0.255 0.101 0.618 0.443 0.59 0.317-0.026 0.688-0.367 0.936-0.543 0.477-0.34 0.984-0.629 1.466-0.96 0.252-0.174 0.505-0.329 0.79-0.445 0.141-0.058 0.257-0.092 0.38-0.186 0.118-0.091-0.143-0.095-0.212-0.044-0.234 0.179-0.611 0.265-0.869 0.427-0.347 0.219-0.703 0.434-1.040 0.664-0.324 0.222-0.644 0.461-0.979 0.665-0.175 0.107-0.383 0.289-0.565 0.060-0.106-0.133-0.146-0.474-0.213-0.636-0.056-0.136-0.118-0.222-0.196-0.341-0.14-0.21-0.063-0.173 0.156-0.222 0.455-0.102 0.909-0.167 1.373-0.201 0.849-0.062 1.642-0.095 2.457-0.373 0.153-0.049 0.122-0.182-0.035-0.129z"></path>
<path d="M29.248 16.669c-0.084 0-0.167 0-0.249 0-0.034 0.049-0.068 0.1-0.102 0.149 0.872-0.013 1.741-0.082 2.61-0.158 0.219-0.019 0.439-0.036 0.656-0.068 0.175-0.026 0.246-0.103 0.264 0.058 0.013 0.109-0.086 0.348-0.119 0.456-0.074 0.244-0.186 0.483-0.294 0.713-0.087 0.186-0.181 0.363-0.313 0.522-0.123 0.148-0.112 0.162-0.253 0.048-0.275-0.223-0.548-0.451-0.842-0.654-0.265-0.181-0.529-0.401-0.82-0.538-0.234-0.11-0.71-0.236-0.85-0.483-0.061 0.036-0.122 0.073-0.183 0.11 0.043-0.002 0.086-0.005 0.129-0.007 0.098-0.005 0.279-0.159 0.102-0.149-0.044 0.002-0.086 0.005-0.129 0.007-0.032 0.001-0.223 0.039-0.183 0.11 0.226 0.398 0.925 0.527 1.275 0.777 0.257 0.185 0.523 0.36 0.78 0.55 0.153 0.113 0.31 0.217 0.448 0.349 0.065 0.062 0.107 0.16 0.189 0.203 0.274 0.147 0.468-0.162 0.603-0.349 0.394-0.55 0.591-1.208 0.785-1.847 0.004-0.013 0-0.025-0.009-0.035-0.088-0.084-0.147-0.072-0.266-0.055-0.34 0.047-0.674 0.114-1.020 0.143-0.819 0.071-1.639 0.134-2.462 0.147-0.098 0.001-0.281 0.149-0.102 0.149 0.084 0 0.167 0 0.249 0 0.101-0.001 0.282-0.15 0.105-0.15z"></path>
<path d="M6.267 25.256c0.007-0.007 0.015-0.014 0.022-0.022-0.071-0.014-0.141-0.029-0.212-0.043-0.622 0.624-1.2 1.34-1.697 2.067-0.099 0.145-0.324 0.348-0.175 0.508 0.114 0.122 0.413 0.107 0.565 0.121 0.323 0.031 0.65 0.146 0.971 0.161 0.125 0.006 0.221 0 0.3-0.119 0.076-0.115 0.058-0.367 0.068-0.497 0.019-0.22 0.022-0.441 0.039-0.661 0.019-0.246 0.040-0.492 0.068-0.737 0.026-0.228 0.007-0.493 0.114-0.694-0.085 0.005-0.169 0.009-0.254 0.014-0.001 0.009-0.001 0.019-0.002 0.028-0.008 0.106 0.256 0.055 0.263-0.033 0.001-0.009 0.001-0.019 0.002-0.028 0.008-0.109-0.223-0.046-0.254 0.014-0.126 0.236-0.109 0.467-0.133 0.732-0.027 0.321-0.069 0.641-0.086 0.963-0.007 0.128 0.032 0.772-0.059 0.842-0.080 0.061-0.627-0.107-0.719-0.119-0.14-0.016-0.328 0.013-0.456-0.042-0.235-0.101-0.174-0.201-0.052-0.382 0.096-0.143 0.196-0.283 0.3-0.422 0.429-0.578 0.903-1.163 1.411-1.672 0.108-0.108-0.149-0.105-0.212-0.044-0.007 0.007-0.015 0.014-0.022 0.022-0.112 0.107 0.147 0.103 0.209 0.042z"></path>
<path d="M26.756 22.744c0.229 0.436 0.688 0.703 1.131 0.885 0.248 0.101 0.507 0.175 0.762 0.256 0.217 0.069 0.636 0.136 0.804 0.314 0.014-0.031 0.027-0.060 0.041-0.091-0.063 0.042-0.187 0.023-0.265 0.059-0.13 0.060-0.213 0.165-0.31 0.269-0.172 0.185-1.060 1.091-1.268 0.879-0.089-0.091-0.067-0.476-0.12-0.609-0.102-0.255-0.22-0.497-0.304-0.761-0.081-0.247-0.176-0.491-0.208-0.75-0.020-0.167 0.012-0.308-0.095-0.45-0.054-0.072-0.308 0.019-0.244 0.104 0.091 0.12 0.066 0.242 0.076 0.377 0.014 0.181 0.060 0.328 0.115 0.5 0.090 0.286 0.18 0.57 0.301 0.845 0.062 0.142 0.136 0.274 0.169 0.428 0.027 0.129-0.026 0.306 0.025 0.422 0.053 0.12 0.056 0.132 0.192 0.135 0.344 0.008 0.844-0.404 1.097-0.598 0.209-0.161 0.346-0.387 0.548-0.551 0.149-0.121 0.306-0.121 0.456-0.22 0.026-0.018 0.073-0.058 0.041-0.091-0.227-0.24-0.729-0.302-1.037-0.4-0.596-0.189-1.33-0.429-1.641-1.022-0.048-0.092-0.303-0.006-0.265 0.068z"></path>
<path d="M8.6 13.41c0.192 0.937 0.402 1.87 0.642 2.797 0.114 0.441 0.242 0.878 0.36 1.319 0.079 0.294 0.143 0.692 0.35 0.93 0.042 0.048 0.202 0.004 0.195-0.067-0.012-0.116-0.058-0.208-0.121-0.304-0.036-0.056-0.233 0.009-0.188 0.079 0.065 0.098 0.095 0.168 0.107 0.28 0.065-0.022 0.129-0.045 0.195-0.067-0.223-0.256-0.279-0.702-0.366-1.018-0.121-0.445-0.249-0.887-0.363-1.334-0.227-0.884-0.426-1.774-0.609-2.667-0.015-0.069-0.217-0.020-0.202 0.054z"></path>
<path d="M8.502 12.224c-0.119 0.033-0.167 0.116-0.166 0.235 0.002 0.129 0.065 0.213 0.178 0.273 0.052 0.027 0.141-0.002 0.174-0.047 0.076-0.101 0.166-0.286 0.121-0.414-0.063-0.18-0.348-0.082-0.333 0.092 0.006 0.066 0.209 0.022 0.202-0.054-0.001-0.012-0.001-0.024 0-0.036-0.040 0.002-0.080 0.005-0.12 0.007 0.142 0.055 0.001 0.324-0.058 0.401 0.058-0.015 0.116-0.032 0.174-0.047-0.071-0.038-0.116-0.084-0.13-0.163-0.005-0.031-0.007-0.061-0.004-0.092 0.001-0.013 0.005-0.025 0.006-0.038 0.004-0.036 0.035-0.032-0.018-0.018 0.029-0.008 0.099-0.035 0.087-0.078-0.011-0.039-0.087-0.028-0.114-0.021z"></path>
<path d="M10.939 12.964c-0.099 0.216-0.022 0.301 0.047 0.51 0.082 0.244 0.114 0.521 0.173 0.772 0.123 0.528 0.221 1.053 0.29 1.592 0.065 0.504 0.123 1.009 0.175 1.514 0.039 0.381 0.088 0.836 0.294 1.167 0.033 0.053 0.185 0.001 0.195-0.052 0.021-0.108 0.018-0.2 0.013-0.311-0.002-0.063-0.206-0.023-0.202 0.054 0.008 0.094 0.005 0.188-0.013 0.282 0.065-0.018 0.129-0.035 0.195-0.052-0.21-0.339-0.248-0.821-0.286-1.206-0.047-0.486-0.107-0.967-0.168-1.451-0.060-0.471-0.134-0.937-0.244-1.4-0.056-0.235-0.11-0.471-0.162-0.708-0.056-0.253-0.221-0.483-0.104-0.739 0.026-0.059-0.174-0.039-0.203 0.027z"></path>
<path d="M11 12.886c0.406-0.004 0.809-0.029 1.197 0.114 0.301 0.111 0.592 0.277 0.831 0.494 0.431 0.392 0.679 1.16 0.733 1.732 0.069 0.73-0.183 1.448-0.614 2.032-0.187 0.254-0.371 0.579-0.615 0.784-0.202 0.17-0.462 0.176-0.658 0.353 0.061 0.001 0.121 0.002 0.182 0.004 0.002-0.014 0.006-0.027 0.008-0.041 0.015-0.076-0.188-0.043-0.202 0.026-0.002 0.014-0.006 0.027-0.008 0.041-0.016 0.082 0.156 0.027 0.182 0.003 0.146-0.13 0.321-0.129 0.48-0.216 0.102-0.056 0.187-0.141 0.267-0.226 0.241-0.259 0.464-0.576 0.659-0.871 0.402-0.61 0.612-1.341 0.507-2.070-0.092-0.642-0.371-1.372-0.903-1.767-0.61-0.454-1.23-0.51-1.965-0.504-0.078-0.001-0.216 0.114-0.081 0.113z"></path>
<path d="M16.621 13.202c-0.467-0.040-0.926-0.041-1.394-0.066-0.159-0.008-0.438-0.068-0.558 0.093-0.065 0.088-0.039 0.204-0.036 0.306 0.007 0.268-0.009 0.537 0.006 0.805 0.031 0.514 0.058 1.020 0.065 1.535 0.007 0.528-0.067 1.052-0.071 1.581-0.001 0.228-0.075 0.631 0.079 0.835 0.188 0.247 0.648 0.136 0.907 0.136 0.238 0 0.477 0.014 0.715 0.011 0.177-0.002 0.341-0.067 0.516-0.072 0.075-0.002 0.214-0.119 0.079-0.114-0.135 0.004-0.253 0.035-0.388 0.054-0.192 0.026-0.383 0.008-0.576 0.008-0.29-0.001-1.019 0.113-1.116-0.221-0.079-0.269-0.016-0.705-0.011-0.972 0.008-0.364 0.066-0.725 0.068-1.090 0.007-0.804-0.072-1.599-0.072-2.402 0-0.159-0.040-0.353 0.167-0.391 0.119-0.022 0.291 0.018 0.414 0.018 0.381 0 0.748 0.029 1.126 0.061 0.079 0.006 0.215-0.103 0.080-0.115z"></path>
<path d="M14.633 15.78c0.268 0.024 0.534 0.101 0.805 0.122 0.284 0.022 0.571 0.004 0.857 0.001 0.075-0.001 0.214-0.115 0.079-0.114-0.301 0.002-0.602 0.021-0.902-0.007-0.257-0.024-0.507-0.094-0.761-0.116-0.078-0.008-0.214 0.101-0.079 0.114z"></path>
<path d="M17.964 17.506c-0.044 0.056-0.044 0.059-0.073 0.123 0.067-0.008 0.135-0.016 0.202-0.026 0.060-0.879 0.005-1.78 0.005-2.661 0-0.518-0.019-1.038 0-1.555 0.008-0.216 0.025-0.431 0.058-0.645 0.008-0.053 0.021-0.235 0.053-0.29 0.049-0.085-0.028-0.063 0.053-0.005 0.14 0.102 0.252 0.364 0.342 0.51 0.14 0.225 0.272 0.453 0.398 0.684 0.209 0.381 0.406 0.77 0.603 1.157 0.203 0.398 0.408 0.797 0.597 1.204 0.162 0.348 0.294 0.716 0.511 1.034 0.062-0.026 0.125-0.053 0.188-0.079-0.013-0.014-0.026-0.029-0.039-0.044-0.046-0.052-0.24 0.021-0.188 0.079 0.013 0.014 0.026 0.029 0.039 0.043 0.043 0.049 0.235-0.011 0.188-0.079-0.293-0.429-0.464-0.952-0.691-1.418-0.23-0.471-0.471-0.937-0.714-1.402-0.212-0.408-0.43-0.813-0.672-1.206-0.116-0.188-0.333-0.723-0.609-0.691-0.232 0.027-0.235 0.357-0.261 0.527-0.072 0.476-0.066 0.959-0.060 1.439 0.006 0.531 0.003 1.063 0.003 1.594 0 0.607 0.036 1.225-0.005 1.829-0.006 0.092 0.178 0.027 0.202-0.026 0.020-0.032 0.040-0.062 0.059-0.094 0.053-0.069-0.149-0.054-0.19-0.002z"></path>
<path d="M17.895 15.533c0.378-0.005 0.751-0.045 1.124-0.115 0.139-0.026 0.276-0.054 0.414-0.085 0.157-0.035 0.403-0.163 0.556-0.169 0.075-0.004 0.214-0.12 0.079-0.114-0.265 0.011-0.508 0.15-0.768 0.206-0.44 0.093-0.876 0.159-1.326 0.163-0.075 0.001-0.214 0.116-0.079 0.114z"></path>
<path d="M23.685 12.926c-0.386-0.616-0.998-0.962-1.66-0.898-0.543 0.052-1.166 0.429-1.175 1.136-0.014 0.976 0.893 1.377 1.527 1.702 0.565 0.292 1.128 0.679 1.197 1.462 0.088 1.014-0.717 1.803-1.588 1.453-0.080-0.032-0.263 0.055-0.119 0.113 1.152 0.463 2.497-0.822 1.754-2.211-0.409-0.765-1.251-0.9-1.864-1.346-0.515-0.374-0.929-1.107-0.471-1.746 0.604-0.842 1.702-0.384 2.174 0.368 0.046 0.075 0.272 0.040 0.227-0.033z"></path>
<path d="M15.106 3.137c-0.189-0.126-0.279-0.592-0.368-0.79-0.133-0.292-0.287-0.571-0.446-0.849-0.147-0.256-0.3-0.509-0.441-0.768-0.163-0.299 0.082-0.234 0.307-0.293 0.163-0.042 0.604-0.307 0.725-0.254 0.147 0.066 0.128 0.523 0.133 0.644 0.028 0.796-0.085 1.581-0.102 2.375 0.088-0.018 0.175-0.034 0.263-0.052 0-0.009 0-0.020 0-0.029 0-0.081-0.263-0.032-0.263 0.071 0 0.009 0 0.020 0 0.029 0 0.080 0.262 0.031 0.263-0.052 0.021-0.931 0.219-1.901 0.068-2.829-0.026-0.162-0.038-0.303-0.208-0.337-0.094-0.019-0.178 0.046-0.259 0.074-0.277 0.095-0.542 0.213-0.833 0.263-0.138 0.024-0.393 0.018-0.449 0.189-0.058 0.175 0.22 0.501 0.29 0.624 0.277 0.481 0.574 0.958 0.779 1.475 0.089 0.223 0.119 0.495 0.33 0.636 0.071 0.047 0.314-0.059 0.209-0.128z"></path>
</symbol>
<symbol id="icon-vector-right" viewBox="0 0 17 32">
<path fill="none" stroke="#7981ad" style="stroke: var(--color5, #7981ad)" stroke-linejoin="miter" stroke-linecap="butt" stroke-miterlimit="4" stroke-width="2.9091" d="M1.455 1.455l12.488 12.488c1.136 1.136 1.136 2.978 0 4.114l-12.488 12.488"></path>
</symbol>
<symbol id="icon-vector-left" viewBox="0 0 17 32">
<path fill="none" stroke="#7981ad" style="stroke: var(--color5, #7981ad)" stroke-linejoin="miter" stroke-linecap="butt" stroke-miterlimit="4" stroke-width="2.9091" d="M16 1.455l-12.488 12.488c-1.136 1.136-1.136 2.978 0 4.114l12.488 12.488"></path>
</symbol>
<symbol id="icon-basket" viewBox="0 0 32 32">
<path fill="#fafafa" style="fill: var(--color6, #fafafa)" d="M18.57 24c0.732 0 1.326-0.597 1.326-1.333v-2.667c0-0.736-0.594-1.333-1.326-1.333s-1.326 0.597-1.326 1.333v2.667c0 0.736 0.594 1.333 1.326 1.333zM13.266 24c0.732 0 1.326-0.597 1.326-1.333v-2.667c0-0.736-0.594-1.333-1.326-1.333s-1.326 0.597-1.326 1.333v2.667c0 0.736 0.594 1.333 1.326 1.333zM25.202 8h-1.83l-2.294-4.6c-0.191-0.461-0.623-0.777-1.118-0.817s-0.972 0.202-1.233 0.627c-0.262 0.425-0.265 0.961-0.009 1.39l1.684 3.4h-8.966l1.684-3.4c0.267-0.645-0.006-1.387-0.626-1.702s-1.377-0.096-1.735 0.502l-2.295 4.6h-1.83c-1.935 0.030-3.569 1.455-3.87 3.377s0.817 3.783 2.65 4.41l0.981 9.947c0.205 2.052 1.928 3.61 3.979 3.6h11.115c2.051 0.010 3.774-1.548 3.979-3.6l0.982-9.947c1.837-0.628 2.955-2.497 2.647-4.422s-1.953-3.347-3.893-3.364zM22.8 25.467c-0.068 0.684-0.643 1.203-1.326 1.2h-11.115c-0.684 0.003-1.258-0.516-1.326-1.2l-0.942-9.467h15.65l-0.942 9.467zM25.203 13.333h-18.568c-0.732 0-1.326-0.597-1.326-1.333s0.594-1.333 1.326-1.333h18.568c0.732 0 1.326 0.597 1.326 1.333s-0.594 1.333-1.326 1.333z"></path>
</symbol>
<symbol id="icon-close" viewBox="0 0 32 32">
<path d="M20.947 11.054c-0.25-0.252-0.591-0.394-0.947-0.394s-0.696 0.142-0.947 0.394l-3.053 3.067-3.053-3.067c-0.523-0.523-1.37-0.523-1.893 0s-0.523 1.37 0 1.893l3.067 3.053-3.067 3.053c-0.252 0.25-0.394 0.591-0.394 0.947s0.142 0.696 0.394 0.947c0.25 0.253 0.591 0.394 0.947 0.394s0.696-0.142 0.947-0.394l3.053-3.067 3.053 3.067c0.25 0.253 0.591 0.394 0.947 0.394s0.696-0.142 0.947-0.394c0.252-0.25 0.394-0.591 0.394-0.947s-0.142-0.696-0.394-0.947l-3.067-3.053 3.067-3.053c0.252-0.25 0.394-0.591 0.394-0.947s-0.142-0.696-0.394-0.947zM25.427 6.573c-3.348-3.466-8.305-4.856-12.967-3.636s-8.302 4.861-9.523 9.523c-1.22 4.662 0.17 9.619 3.636 12.967 3.348 3.466 8.305 4.856 12.967 3.636s8.302-4.861 9.523-9.523c1.22-4.662-0.17-9.619-3.636-12.967zM23.546 23.547c-3.596 3.6-9.235 4.159-13.467 1.334s-5.881-8.245-3.937-12.948c1.944-4.703 6.939-7.377 11.931-6.388s8.589 5.366 8.593 10.455c0.010 2.831-1.114 5.549-3.12 7.547z"></path>
</symbol>
<symbol id="icon-arrow" viewBox="0 0 128 32">
<path d="M125.414 16.965c0.781-0.781 0.781-2.047 0-2.828l-12.728-12.728c-0.781-0.781-2.048-0.781-2.828 0s-0.781 2.047 0 2.828l11.314 11.314-11.314 11.314c-0.781 0.781-0.781 2.047 0 2.828s2.047 0.781 2.828 0l12.728-12.728zM0 17.551h124v-4h-124v4z"></path>
</symbol>
<symbol id="icon-star" viewBox="0 0 33 32">
<path fill="#1fab8a" style="fill: var(--color7, #1fab8a)" d="M31.034 10.4l-7.156-1.387c-0.688-0.138-1.377-0.554-1.651-1.248l-3.578-6.517c-0.964-1.664-3.44-1.664-4.266 0l-3.578 6.517c-0.413 0.694-0.964 1.109-1.651 1.248l-7.156 1.387c-1.927 0.416-2.615 2.773-1.377 4.16l4.954 5.408c0.55 0.554 0.688 1.248 0.688 1.941l-0.826 7.349c-0.276 1.941 1.789 3.328 3.44 2.495l6.605-3.189c0.688-0.278 1.377-0.278 2.064 0l6.605 3.189c1.789 0.832 3.716-0.554 3.44-2.495l-0.826-7.349c-0.137-0.694 0.137-1.525 0.688-1.941l4.954-5.408c1.238-1.525 0.55-3.744-1.377-4.16h0z"></path>
</symbol>
<symbol id="icon-circle" viewBox="0 0 37 32">
<path fill="#eaceff" style="fill: var(--color8, #eaceff)" d="M31.339 14.563c0 8.043-6.52 14.563-14.563 14.563s-14.563-6.52-14.563-14.563c0-8.043 6.52-14.563 14.563-14.563s14.563 6.52 14.563 14.563z"></path>
<path fill="#eaceff" style="fill: var(--color8, #eaceff)" d="M36.301 9.786c-0.309-0.18-0.574-0.327-0.83-0.487-0.435-0.271-0.852-0.557-1.146-0.995-0.298-0.444-0.332-0.908-0.060-1.355 0.167-0.274 0.409-0.503 0.626-0.743 0.085-0.094 0.198-0.165 0.345-0.285-0.282-0.015-0.503-0.024-0.723-0.042-0.539-0.041-1.081-0.060-1.614-0.138-0.732-0.102-1.060-0.573-0.931-1.305 0.051-0.287 0.172-0.564 0.264-0.846 0.028-0.084 0.068-0.164 0.11-0.262-0.491 0.15-0.956 0.3-1.423 0.43-1.090 0.303-1.495-0.476-1.392-1.256 0.028-0.209 0.107-0.415 0.182-0.614 0.054-0.132 0.172-0.221 0.317-0.159 0.132 0.054 0.138 0.187 0.106 0.318-0.029 0.129-0.067 0.258-0.081 0.388-0.016 0.152-0.031 0.305-0.017 0.457 0.040 0.428 0.25 0.608 0.677 0.546 0.301-0.043 0.597-0.131 0.89-0.214 0.272-0.077 0.543-0.168 0.813-0.259 0.14-0.045 0.282-0.086 0.403 0.025 0.139 0.127 0.084 0.284 0.034 0.428-0.063 0.184-0.152 0.357-0.204 0.545-0.069 0.235-0.133 0.474-0.163 0.713-0.040 0.325 0.064 0.485 0.381 0.568 0.304 0.080 0.619 0.143 0.932 0.173 0.672 0.060 1.342 0.096 2.014 0.132 0.159 0.009 0.287 0.045 0.341 0.2 0.052 0.147-0.032 0.253-0.144 0.341-0.2 0.157-0.409 0.307-0.6 0.474-0.167 0.147-0.336 0.301-0.472 0.474-0.367 0.463-0.348 0.844 0.028 1.296 0.283 0.341 0.622 0.616 0.996 0.847 0.269 0.168 0.548 0.318 0.822 0.474 0.145 0.082 0.295 0.167 0.266 0.368-0.030 0.189-0.19 0.252-0.349 0.305-0.068 0.021-0.138 0.032-0.208 0.046-0.14 0.024-0.28 0.058-0.422 0.069-1.055 0.087-1.579 0.755-1.844 1.693-0.048 0.173-0.043 0.362-0.056 0.545-0.007 0.090 0.012 0.185-0.005 0.273-0.011 0.063-0.056 0.15-0.104 0.164-0.053 0.016-0.139-0.030-0.188-0.063-0.106-0.075-0.172-0.221-0.188-0.342-0.032-0.24-0.049-0.49-0.010-0.726 0.084-0.522 0.319-0.987 0.637-1.411 0.271-0.361 0.65-0.553 1.080-0.644 0.282-0.056 0.565-0.089 0.912-0.144z"></path>
<path fill="#eaceff" style="fill: var(--color8, #eaceff)" d="M5.524 31.032c-0.061-0.352-0.106-0.652-0.167-0.947-0.102-0.502-0.224-0.993-0.532-1.421-0.312-0.434-0.735-0.628-1.249-0.529-0.316 0.061-0.614 0.208-0.915 0.326-0.118 0.047-0.224 0.128-0.388 0.224 0.084-0.269 0.153-0.479 0.214-0.692 0.15-0.52 0.321-1.034 0.435-1.561 0.16-0.721-0.167-1.193-0.898-1.329-0.287-0.053-0.589-0.036-0.885-0.048-0.089-0.003-0.177 0.007-0.284 0.011 0.312-0.408 0.615-0.791 0.9-1.183 0.665-0.915 0.077-1.568-0.69-1.743-0.205-0.047-0.426-0.044-0.639-0.045-0.143 0.005-0.267 0.084-0.26 0.241 0.005 0.143 0.127 0.194 0.261 0.211 0.131 0.018 0.265 0.027 0.392 0.059 0.148 0.038 0.297 0.078 0.435 0.144 0.387 0.186 0.482 0.447 0.275 0.825-0.146 0.267-0.331 0.513-0.512 0.759-0.168 0.228-0.347 0.45-0.527 0.672-0.091 0.115-0.179 0.234-0.117 0.386 0.071 0.174 0.236 0.177 0.389 0.181 0.194 0.006 0.388-0.018 0.582-0.001 0.244 0.018 0.49 0.041 0.725 0.097 0.319 0.076 0.432 0.229 0.399 0.556-0.032 0.312-0.082 0.63-0.164 0.934-0.179 0.65-0.378 1.291-0.58 1.933-0.047 0.152-0.058 0.284 0.069 0.389 0.12 0.101 0.248 0.058 0.37-0.016 0.217-0.132 0.431-0.276 0.654-0.397 0.196-0.105 0.399-0.21 0.61-0.277 0.562-0.181 0.913-0.031 1.205 0.479 0.22 0.384 0.36 0.798 0.446 1.229 0.063 0.31 0.106 0.624 0.157 0.935 0.026 0.165 0.054 0.335 0.252 0.378 0.188 0.038 0.302-0.090 0.407-0.22 0.044-0.056 0.079-0.118 0.115-0.179 0.072-0.123 0.153-0.242 0.212-0.372 0.45-0.958 1.259-1.216 2.23-1.136 0.179 0.015 0.354 0.087 0.53 0.138 0.087 0.025 0.17 0.076 0.258 0.090 0.063 0.011 0.16 0.001 0.19-0.040 0.033-0.044 0.021-0.14 0.006-0.198-0.034-0.125-0.147-0.238-0.254-0.296-0.213-0.113-0.442-0.217-0.677-0.263-0.519-0.104-1.036-0.046-1.545 0.104-0.433 0.128-0.745 0.416-0.981 0.787-0.151 0.244-0.281 0.498-0.454 0.804z"></path>
</symbol>
<symbol id="icon-search" viewBox="0 0 32 32">
<path style="fill: var(--color9)" d="M24.425 19.243c3.258-4.185 2.964-10.239-0.883-14.086-4.166-4.166-10.919-4.166-15.085 0s-4.166 10.919 0 15.085c3.847 3.847 9.901 4.141 14.086 0.883 0.018 0.020 0.037 0.040 0.056 0.060l5.657 5.657c0.521 0.521 1.365 0.521 1.886 0s0.521-1.365 0-1.886l-5.657-5.657c-0.020-0.019-0.040-0.038-0.060-0.056zM21.657 7.043c3.124 3.124 3.124 8.189 0 11.314s-8.189 3.124-11.314 0c-3.124-3.124-3.124-8.19 0-11.314s8.19-3.124 11.314 0z"></path>
</symbol>
<symbol id="icon-user" viewBox="0 0 32 32">
<path d="M20.945 16.946c2.68-2.108 3.729-5.683 2.613-8.905s-4.15-5.383-7.56-5.383-6.444 2.161-7.56 5.383c-1.115 3.222-0.066 6.797 2.613 8.905-4.564 1.828-7.751 6.020-8.293 10.907-0.081 0.736 0.45 1.399 1.187 1.48s1.399-0.45 1.48-1.187c0.606-5.396 5.17-9.476 10.6-9.476s9.994 4.080 10.6 9.476c0.075 0.679 0.651 1.191 1.333 1.187h0.147c0.728-0.084 1.251-0.739 1.173-1.467-0.545-4.901-3.75-9.101-8.333-10.92zM15.996 16c-2.946 0-5.333-2.388-5.333-5.333s2.388-5.333 5.333-5.333c2.946 0 5.333 2.388 5.333 5.333 0 1.414-0.562 2.771-1.562 3.771s-2.357 1.562-3.771 1.562z"></path>
</symbol>
<symbol id="icon-logo" viewBox="0 0 391 32">
<path d="M16.127 0.712c4.21 0 7.838 1.497 10.883 4.492l-4.342 4.342c-1.842-1.817-4.010-2.726-6.504-2.726-2.544 0-4.712 0.909-6.504 2.726-1.804 1.804-2.707 3.979-2.707 6.522s0.902 4.718 2.707 6.522c1.779 1.804 3.947 2.707 6.504 2.707 1.88 0 3.59-0.526 5.131-1.579 1.416-0.965 2.475-2.205 3.177-3.722h-8.646v-5.808h15.563c0.401 5.175-1.071 9.423-4.417 12.744-3.020 2.995-6.641 4.492-10.864 4.492-4.261 0-7.876-1.497-10.846-4.492-3.007-2.982-4.511-6.604-4.511-10.864 0-4.223 1.504-7.851 4.511-10.883 2.982-3.020 6.598-4.53 10.846-4.53l0.019 0.056z"></path>
<path d="M42.565 0.9h6.090v30.3h-6.090v-30.3z"></path>
<path d="M79.154 0.825v6.071h-12.18v6.109h9.135v6.071h-9.135v12.161h-6.090v-30.413h18.27z"></path>
<path d="M110.141 0.9v6.034h-7.443v24.266h-6.109v-24.266h-7.462v-6.034h21.014z"></path>
<path d="M129.681 25.242c0.877 0 1.679-0.307 2.406-0.921 0.752-0.627 1.128-1.347 1.128-2.162 0-1.178-0.702-2.080-2.106-2.707-0.463-0.213-1.096-0.432-1.898-0.658l-0.488-0.132-0.451-0.132c-0.351-0.088-0.639-0.169-0.865-0.244-1.98-0.677-3.597-1.723-4.85-3.139-1.403-1.566-2.106-3.327-2.106-5.282 0-2.556 0.909-4.737 2.726-6.541 1.805-1.792 3.985-2.688 6.542-2.688 2.318 0 4.342 0.764 6.071 2.293 1.729 1.504 2.75 3.39 3.064 5.658l-6.053 1.278c0-0.84-0.301-1.56-0.902-2.162s-1.315-0.902-2.142-0.902c-0.852 0-1.579 0.301-2.181 0.902-0.614 0.614-0.921 1.341-0.921 2.18 0 1.178 0.664 2.118 1.993 2.819 0.488 0.263 1.096 0.508 1.823 0.733 0.238 0.075 0.538 0.169 0.902 0.282l0.433 0.113 0.414 0.132c2.055 0.589 3.734 1.573 5.037 2.951 1.442 1.516 2.162 3.277 2.162 5.282 0 2.519-0.977 4.693-2.932 6.522-1.917 1.804-4.166 2.707-6.748 2.707-2.355 0-4.461-0.758-6.315-2.274-1.854-1.529-2.958-3.421-3.308-5.676l6.052-1.278c0 0.814 0.376 1.535 1.128 2.162 0.726 0.602 1.535 0.902 2.425 0.902l-0.038-0.019z"></path>
<path d="M183.253 8.663c-0.126-0.539-0.395-0.99-0.808-1.353-0.451-0.376-0.971-0.564-1.561-0.564-1.341 0-2.124 0.601-2.35 1.804-0.062 0.326 0.15 0.959 0.639 1.898 0.714 1.391 1.466 2.613 2.256 3.665 0.451 0.614 1.065 1.328 1.842 2.143l1.034 1.071c0.438 0.464 0.808 0.852 1.109 1.165 0.702 0.764 1.253 1.322 1.654 1.673 0.113-0.539 0.188-1.184 0.226-1.936 0.013-0.238 0.026-0.583 0.038-1.034l0.019-0.545 0.018-0.583 5.695-0.075c-0.087 3.559-0.507 6.172-1.259 7.838l0.207 0.132 0.226 0.15c0.188 0.113 0.35 0.213 0.489 0.301 0.401 0.238 0.764 0.439 1.090 0.602 0.915 0.451 1.723 0.664 2.425 0.639l-0.018 5.639c-1.303 0-2.613-0.263-3.929-0.789-0.501-0.213-1.034-0.47-1.598-0.771-0.226-0.125-0.47-0.263-0.733-0.414-0.163-0.1-0.389-0.238-0.677-0.414-0.351-0.201-0.658-0.42-0.921-0.658-1.128 1.291-2.694 2.193-4.699 2.707-1.429 0.363-2.719 0.545-3.872 0.545-2.82 0-5.207-0.952-7.162-2.857-1.942-1.88-2.914-4.173-2.914-6.879 0.038-1.754 0.482-3.177 1.334-4.267s1.748-2.086 2.688-2.989c0.088-0.088 0.257-0.226 0.507-0.414-0.463-0.639-0.89-1.485-1.278-2.538-0.426-1.14-0.652-2.155-0.677-3.045 0-1.917 0.77-3.646 2.312-5.188 0.677-0.677 1.573-1.284 2.688-1.823 1.29-0.614 2.487-0.921 3.59-0.921 2.081 0 3.922 0.683 5.526 2.049 1.504 1.278 2.469 2.863 2.894 4.755l-6.052 1.278zM179.813 25.542c0.614 0 1.347-0.138 2.199-0.414 0.902-0.301 1.46-0.614 1.673-0.94v0.019c-0.35-0.301-1.19-1.053-2.518-2.256-1.341-1.203-2.431-2.5-3.27-3.891-0.552 0.401-1.097 0.871-1.636 1.41s-0.789 1.335-0.751 2.387c0 0.514 0.144 1.053 0.432 1.617 0.25 0.476 0.551 0.877 0.902 1.203 0.589 0.576 1.578 0.865 2.97 0.865z"></path>
<path d="M242.52 20.542l14.83-20.357v31.014h-6.090v-12.556l-8.74 12.067-8.759-12.067v12.556h-6.090v-31.014l14.849 20.357z"></path>
<path d="M287.867 0.825v6.071h-12.18v6.109h9.135v6.071h-9.135v6.109h12.18v6.052h-18.27v-30.413h18.27z"></path>
<path d="M298.968 0.9h9.886c3.208 0 5.852 1.028 7.933 3.083 1.014 1.015 1.735 1.974 2.162 2.876 0.514 1.103 0.77 2.437 0.77 4.004v0.789c0 2.043-0.639 3.966-1.918 5.77-0.914 1.278-2.124 2.212-3.627 2.801l7.049 10.977h-7.444l-8.702-13.402v13.402h-6.090l-0.018-30.3zM309.438 15.317c1.102 0 2.049-0.42 2.838-1.259 0.777-0.84 1.165-1.842 1.165-3.007 0-1.103-0.401-2.074-1.202-2.913-0.827-0.802-2.081-1.203-3.759-1.203h-3.422v8.364h2.35v0.019h2.030z"></path>
<path d="M357.454 26.933c-3.008 2.982-6.642 4.474-10.902 4.474-4.235-0.013-7.85-1.504-10.846-4.474-3.007-3.007-4.511-6.629-4.511-10.864 0-4.223 1.504-7.851 4.511-10.883 3.020-3.020 6.635-4.53 10.846-4.53l-0.018 0.075c4.16 0 7.794 1.497 10.902 4.492l-4.342 4.342c-1.83-1.804-4.004-2.707-6.522-2.707-2.557 0-4.725 0.902-6.504 2.707-1.804 1.83-2.706 4.004-2.706 6.522 0 2.544 0.902 4.718 2.706 6.522 1.792 1.792 3.96 2.688 6.504 2.688 2.556 0 4.736-0.902 6.541-2.707l4.342 4.342z"></path>
<path d="M374.645 0.9v12.124h10.131v-12.124h6.071v30.3h-6.071v-12.142h-10.131v12.142h-6.071v-30.3h6.071z"></path>
</symbol>
<symbol id="icon-mail" viewBox="0 0 43 32">
<path d="M37.333 0h-32c-2.2 0-3.98 1.8-3.98 4l-0.020 24c0 2.2 1.8 4 4 4h32c2.2 0 4-1.8 4-4v-24c0-2.2-1.8-4-4-4zM36.533 8.5l-14.14 8.84c-0.64 0.4-1.48 0.4-2.12 0l-14.14-8.84c-0.5-0.32-0.8-0.86-0.8-1.44 0-1.34 1.46-2.14 2.6-1.44l13.4 8.38 13.4-8.38c1.14-0.7 2.6 0.1 2.6 1.44 0 0.58-0.3 1.12-0.8 1.44z"></path>
</symbol>
<symbol id="icon-tel" viewBox="0 0 32 32">
<path d="M27.419 20.852l-4.201-0.48c-1.009-0.116-2.002 0.232-2.713 0.943l-3.044 3.044c-4.681-2.382-8.519-6.203-10.901-10.901l3.060-3.060c0.711-0.711 1.059-1.704 0.943-2.713l-0.48-4.168c-0.198-1.671-1.604-2.928-3.292-2.928h-2.862c-1.869 0-3.424 1.555-3.308 3.424 0.877 14.126 12.174 25.408 26.284 26.284 1.869 0.116 3.424-1.439 3.424-3.308v-2.861c0.016-1.671-1.241-3.077-2.911-3.275z"></path>
</symbol>
<symbol id="icon-name" viewBox="0 0 32 32">
<path d="M16 16c4.42 0 8-3.58 8-8s-3.58-8-8-8c-4.42 0-8 3.58-8 8s3.58 8 8 8zM16 20c-5.34 0-16 2.68-16 8v2c0 1.1 0.9 2 2 2h28c1.1 0 2-0.9 2-2v-2c0-5.32-10.66-8-16-8z"></path>
</symbol>
<symbol id="icon-checkmark" viewBox="0 0 32 32">
<path d="M27 4l-15 15-7-7-5 5 12 12 20-20z"></path>
</symbol>
<symbol id="icon-burger-menu" viewBox="0 0 32 32">
<path d="M4 10.667h24c0.736 0 1.333-0.597 1.333-1.333s-0.597-1.333-1.333-1.333h-24c-0.736 0-1.333 0.597-1.333 1.333s0.597 1.333 1.333 1.333zM28 21.333h-24c-0.736 0-1.333 0.597-1.333 1.333s0.597 1.333 1.333 1.333h24c0.736 0 1.333-0.597 1.333-1.333s-0.597-1.333-1.333-1.333zM28 14.667h-24c-0.736 0-1.333 0.597-1.333 1.333s0.597 1.333 1.333 1.333h24c0.736 0 1.333-0.597 1.333-1.333s-0.597-1.333-1.333-1.333z"></path>
</symbol>
<symbol id="icon-close-menu" viewBox="0 0 32 32">
<path d="M20.952 11.053c-0.25-0.252-0.591-0.394-0.947-0.394s-0.696 0.142-0.947 0.394l-3.053 3.067-3.053-3.067c-0.523-0.523-1.37-0.523-1.893 0s-0.523 1.37 0 1.893l3.067 3.053-3.067 3.053c-0.252 0.25-0.394 0.591-0.394 0.947s0.142 0.696 0.394 0.947c0.25 0.252 0.591 0.394 0.947 0.394s0.696-0.142 0.947-0.394l3.053-3.067 3.053 3.067c0.25 0.252 0.591 0.394 0.947 0.394s0.696-0.142 0.947-0.394c0.253-0.25 0.394-0.591 0.394-0.947s-0.142-0.696-0.394-0.947l-3.067-3.053 3.067-3.053c0.253-0.25 0.394-0.591 0.394-0.947s-0.142-0.696-0.394-0.947zM25.432 6.573c-3.348-3.466-8.305-4.856-12.967-3.636s-8.302 4.861-9.523 9.523c-1.22 4.662 0.17 9.619 3.636 12.967 3.348 3.466 8.305 4.856 12.967 3.636s8.302-4.861 9.523-9.523c1.22-4.662-0.17-9.619-3.636-12.967zM23.553 23.547c-3.596 3.6-9.235 4.159-13.467 1.334s-5.881-8.245-3.937-12.948 6.939-7.377 11.931-6.388c4.992 0.989 8.589 5.366 8.593 10.455 0.010 2.831-1.114 5.549-3.12 7.547z"></path>
</symbol>
</defs>
</svg>
